/* Operations.js
 * Enumeration of actions we can take on a Song, and alternate views we can show.
 */
 
export class Operations {
  static getDependencies() {
    return [];
  }
  constructor() {
  }
  
  /* [{label, name}...] for content that should go in the toolbar menu.
   */
  listOperationsForDisplay() {
    return [
      { label: "New Song", name: "newSong" },
      { label: "Channel Headers", name: "channelHeaders" },
      { label: "Mynth Channel Headers", name: "mynthChannelHeaders" },
      { label: "Events", name: "events" },
      { label: "Quantize Time", name: "quantizeTime" },
      { label: "Division", name: "division" },
      { label: "Tempo", name: "tempo" },
      { label: "Demo", name: "demo" },
    ];
  }
}

Operations.singleton = true;

// snakeshakin.mid
Operations.DEMO_FILE = [
0x4d,0x54,0x68,0x64,0x00,0x00,0x00,0x06,0x00,0x01,0x00,0x07,0x01,0xe0,0x4d,0x54,
0x72,0x6b,0x00,0x00,0x00,0x0d,0x00,0xff,0x51,0x03,0x05,0xa6,0xc2,0x84,0x9c,0x5f,
0xff,0x2f,0x00,0x4d,0x54,0x72,0x6b,0x00,0x00,0x00,0x06,0x84,0x9b,0x7d,0xff,0x2f,
0x00,0x4d,0x54,0x72,0x6b,0x00,0x00,0x07,0xea,0x00,0xb2,0x46,0x01,0x00,0xb2,0x07,
0x1e,0x00,0x92,0x32,0x61,0x81,0x6c,0x82,0x32,0x50,0x83,0x61,0x92,0x32,0x5c,0x81,
0x7f,0x82,0x32,0x57,0x83,0x51,0x92,0x32,0x5a,0x81,0x3b,0x82,0x32,0x32,0x82,0x25,
0x92,0x32,0x5d,0x83,0x34,0x82,0x32,0x53,0x82,0x1c,0x92,0x32,0x52,0x81,0x36,0x82,
0x32,0x43,0x3a,0x92,0x33,0x52,0x81,0x76,0x82,0x33,0x3a,0x81,0x6a,0x92,0x33,0x60,
0x82,0x11,0x82,0x33,0x3a,0x81,0x4f,0x92,0x32,0x61,0x82,0x22,0x82,0x32,0x54,0x83,
0x2e,0x92,0x32,0x58,0x81,0x7c,0x82,0x32,0x51,0x83,0x54,0x92,0x32,0x59,0x82,0x15,
0x82,0x32,0x53,0x81,0x4b,0x92,0x32,0x5b,0x83,0x39,0x82,0x32,0x4b,0x82,0x17,0x92,
0x32,0x50,0x81,0x6c,0x82,0x32,0x24,0x04,0x92,0x33,0x50,0x81,0x7b,0x82,0x33,0x34,
0x81,0x65,0x92,0x33,0x4f,0x82,0x11,0x82,0x33,0x38,0x81,0x4f,0x92,0x32,0x4e,0x82,
0x4e,0x82,0x32,0x4d,0x83,0x02,0x92,0x32,0x41,0x82,0x2f,0x82,0x32,0x4f,0x83,0x28,
0x92,0x32,0x47,0x82,0x15,0x82,0x32,0x50,0x81,0x44,0x92,0x32,0x5f,0x83,0x0c,0x82,
0x32,0x43,0x82,0x44,0x92,0x32,0x56,0x81,0x70,0x92,0x33,0x4c,0x35,0x82,0x32,0x52,
0x81,0x1d,0x82,0x33,0x36,0x82,0x0e,0x92,0x33,0x53,0x81,0x74,0x82,0x33,0x2f,0x81,
0x6c,0x92,0x30,0x50,0x81,0x70,0x92,0x3c,0x43,0x35,0x82,0x30,0x4d,0x81,0x10,0x82,
0x3c,0x35,0x2b,0x92,0x30,0x40,0x81,0x70,0x92,0x3c,0x4f,0x09,0x82,0x30,0x4e,0x81,
0x2c,0x82,0x3c,0x4a,0x3b,0x92,0x30,0x42,0x81,0x70,0x92,0x3c,0x48,0x35,0x82,0x30,
0x48,0x81,0x3b,0x92,0x30,0x3f,0x09,0x82,0x3c,0x4e,0x81,0x67,0x92,0x3c,0x3e,0x28,
0x82,0x30,0x4a,0x5f,0x82,0x3c,0x4c,0x69,0x92,0x2e,0x4a,0x81,0x70,0x92,0x3a,0x47,
0x11,0x82,0x2e,0x38,0x81,0x13,0x82,0x3a,0x3f,0x4c,0x92,0x2e,0x47,0x81,0x70,0x92,
0x3a,0x46,0x2b,0x82,0x2e,0x31,0x81,0x12,0x82,0x3a,0x3a,0x33,0x92,0x2e,0x51,0x81,
0x70,0x92,0x3a,0x46,0x2d,0x82,0x2e,0x37,0x81,0x30,0x82,0x3a,0x2c,0x13,0x92,0x2e,
0x4a,0x81,0x70,0x92,0x3a,0x44,0x1b,0x82,0x2e,0x3c,0x81,0x2a,0x82,0x3a,0x3f,0x2b,
0x92,0x2b,0x5b,0x81,0x70,0x92,0x37,0x49,0x09,0x82,0x2b,0x49,0x81,0x54,0x82,0x37,
0x51,0x13,0x92,0x2b,0x4b,0x81,0x5d,0x82,0x2b,0x50,0x13,0x92,0x37,0x41,0x81,0x4d,
0x82,0x37,0x4c,0x23,0x92,0x2b,0x44,0x81,0x70,0x92,0x37,0x40,0x13,0x82,0x2b,0x4f,
0x81,0x56,0x82,0x37,0x35,0x07,0x92,0x2b,0x4c,0x81,0x70,0x92,0x37,0x4b,0x18,0x82,
0x2b,0x51,0x81,0x19,0x82,0x37,0x3b,0x3f,0x92,0x2b,0x48,0x81,0x70,0x92,0x37,0x48,
0x1e,0x82,0x2b,0x50,0x81,0x25,0x82,0x37,0x48,0x2d,0x92,0x2b,0x43,0x81,0x70,0x92,
0x37,0x46,0x06,0x82,0x2b,0x4a,0x81,0x51,0x82,0x37,0x2d,0x19,0x92,0x2b,0x49,0x81,
0x70,0x92,0x37,0x3c,0x09,0x82,0x2b,0x4c,0x81,0x5e,0x82,0x37,0x38,0x09,0x92,0x2b,
0x43,0x81,0x70,0x92,0x37,0x41,0x04,0x82,0x2b,0x4e,0x81,0x46,0x82,0x37,0x49,0x26,
0x92,0x30,0x48,0x81,0x70,0x92,0x3c,0x3b,0x06,0x82,0x30,0x48,0x81,0x1b,0x82,0x3c,
0x4f,0x4f,0x92,0x30,0x43,0x81,0x70,0x92,0x3c,0x46,0x26,0x82,0x30,0x4a,0x81,0x22,
0x82,0x3c,0x51,0x28,0x92,0x30,0x4c,0x81,0x70,0x92,0x3c,0x49,0x16,0x82,0x30,0x47,
0x81,0x56,0x82,0x3c,0x43,0x04,0x92,0x30,0x3f,0x81,0x70,0x92,0x3c,0x3e,0x11,0x82,
0x30,0x4b,0x81,0x20,0x82,0x3c,0x52,0x3f,0x92,0x2e,0x4e,0x81,0x70,0x92,0x3a,0x43,
0x20,0x82,0x2e,0x3b,0x81,0x25,0x82,0x3a,0x3a,0x2b,0x92,0x2e,0x4c,0x81,0x70,0x92,
0x3a,0x3e,0x28,0x82,0x2e,0x35,0x81,0x41,0x82,0x3a,0x28,0x07,0x92,0x2e,0x48,0x81,
0x70,0x92,0x3a,0x3c,0x23,0x82,0x2e,0x36,0x81,0x4d,0x92,0x2e,0x4d,0x01,0x82,0x3a,
0x2c,0x81,0x6f,0x92,0x3a,0x3a,0x18,0x82,0x2e,0x39,0x81,0x4c,0x82,0x3a,0x3a,0x0c,
0x92,0x2b,0x50,0x81,0x70,0x92,0x37,0x46,0x19,0x82,0x2b,0x4f,0x81,0x41,0x82,0x37,
0x41,0x16,0x92,0x2b,0x47,0x81,0x70,0x92,0x37,0x3d,0x07,0x82,0x2b,0x53,0x81,0x51,
0x82,0x37,0x43,0x18,0x92,0x2b,0x3a,0x81,0x70,0x92,0x37,0x3b,0x14,0x82,0x2b,0x4b,
0x81,0x40,0x82,0x37,0x44,0x1c,0x92,0x2b,0x3d,0x81,0x70,0x92,0x37,0x48,0x13,0x82,
0x2b,0x4d,0x81,0x51,0x82,0x37,0x1f,0x0c,0x92,0x2b,0x4f,0x81,0x70,0x92,0x37,0x3a,
0x16,0x82,0x2b,0x4e,0x81,0x4e,0x82,0x37,0x3a,0x0c,0x92,0x2b,0x3e,0x81,0x70,0x92,
0x37,0x3c,0x20,0x82,0x2b,0x50,0x81,0x47,0x82,0x37,0x3c,0x09,0x92,0x2b,0x4a,0x81,
0x69,0x82,0x2b,0x4d,0x07,0x92,0x37,0x49,0x81,0x2b,0x82,0x37,0x2f,0x45,0x92,0x2b,
0x4d,0x81,0x70,0x92,0x37,0x4c,0x2b,0x82,0x2b,0x52,0x81,0x45,0x92,0x32,0x5a,0x2b,
0x82,0x37,0x45,0x81,0x60,0x82,0x32,0x54,0x83,0x45,0x92,0x32,0x53,0x82,0x1d,0x82,
0x32,0x55,0x83,0x33,0x92,0x32,0x52,0x82,0x1b,0x82,0x32,0x54,0x81,0x45,0x92,0x32,
0x5a,0x83,0x4e,0x82,0x32,0x53,0x82,0x02,0x92,0x32,0x4f,0x81,0x58,0x82,0x32,0x24,
0x18,0x92,0x33,0x51,0x82,0x0e,0x82,0x33,0x3a,0x81,0x52,0x92,0x33,0x59,0x82,0x2a,
0x82,0x33,0x3b,0x81,0x36,0x92,0x32,0x58,0x82,0x28,0x82,0x32,0x53,0x83,0x28,0x92,
0x32,0x52,0x82,0x09,0x82,0x32,0x50,0x83,0x47,0x92,0x32,0x51,0x81,0x7e,0x82,0x32,
0x4b,0x81,0x62,0x92,0x32,0x56,0x83,0x34,0x82,0x32,0x4d,0x82,0x1c,0x92,0x32,0x55,
0x81,0x43,0x82,0x32,0x48,0x2d,0x92,0x33,0x56,0x82,0x28,0x82,0x33,0x3a,0x81,0x38,
0x92,0x33,0x5e,0x82,0x2f,0x82,0x33,0x3a,0x81,0x31,0x92,0x32,0x55,0x82,0x44,0x82,
0x32,0x51,0x83,0x0c,0x92,0x32,0x55,0x82,0x22,0x82,0x32,0x52,0x83,0x2e,0x92,0x32,
0x5a,0x82,0x1b,0x82,0x32,0x4a,0x81,0x45,0x92,0x32,0x59,0x82,0x6b,0x82,0x32,0x46,
0x82,0x65,0x92,0x32,0x51,0x81,0x70,0x92,0x33,0x53,0x11,0x82,0x32,0x40,0x81,0x44,
0x82,0x33,0x36,0x82,0x0b,0x92,0x33,0x53,0x81,0x69,0x82,0x33,0x37,0x81,0x77,0x92,
0x30,0x4e,0x81,0x70,0x92,0x3c,0x42,0x38,0x82,0x30,0x4d,0x81,0x22,0x82,0x3c,0x44,
0x16,0x92,0x30,0x3e,0x81,0x70,0x92,0x3c,0x3f,0x13,0x82,0x30,0x4a,0x81,0x59,0x82,
0x3c,0x4a,0x04,0x92,0x30,0x41,0x81,0x70,0x92,0x3c,0x3b,0x28,0x82,0x30,0x46,0x81,
0x48,0x92,0x30,0x40,0x2e,0x82,0x3c,0x4b,0x81,0x42,0x92,0x3c,0x42,0x0e,0x82,0x30,
0x4c,0x81,0x18,0x82,0x3c,0x2f,0x4a,0x92,0x2e,0x4d,0x81,0x70,0x92,0x3a,0x47,0x13,
0x82,0x2e,0x36,0x81,0x1b,0x82,0x3a,0x3a,0x42,0x92,0x2e,0x46,0x81,0x70,0x92,0x3a,
0x3c,0x23,0x82,0x2e,0x30,0x81,0x47,0x82,0x3a,0x29,0x06,0x92,0x2e,0x43,0x81,0x70,
0x92,0x3a,0x3e,0x23,0x82,0x2e,0x34,0x81,0x4d,0x92,0x2e,0x4c,0x06,0x82,0x3a,0x26,
0x81,0x6a,0x92,0x3a,0x3c,0x01,0x82,0x2e,0x38,0x81,0x51,0x82,0x3a,0x38,0x1e,0x92,
0x2b,0x4f,0x81,0x70,0x92,0x37,0x47,0x1b,0x82,0x2b,0x48,0x81,0x54,0x82,0x37,0x58,
0x01,0x92,0x2b,0x39,0x81,0x57,0x82,0x2b,0x4f,0x19,0x92,0x37,0x2e,0x81,0x67,0x82,
0x37,0x4e,0x09,0x92,0x2b,0x41,0x81,0x70,0x92,0x37,0x3a,0x0b,0x82,0x2b,0x4b,0x81,
0x65,0x92,0x2b,0x42,0x0f,0x82,0x37,0x44,0x81,0x61,0x92,0x37,0x3b,0x0f,0x82,0x2b,
0x50,0x81,0x5d,0x82,0x37,0x38,0x04,0x92,0x2b,0x4d,0x81,0x70,0x92,0x37,0x37,0x0a,
0x82,0x2b,0x4c,0x81,0x66,0x92,0x2b,0x4a,0x20,0x82,0x37,0x49,0x81,0x4c,0x82,0x2b,
0x44,0x04,0x92,0x37,0x3c,0x81,0x70,0x92,0x2b,0x48,0x01,0x82,0x37,0x3d,0x81,0x61,
0x82,0x2b,0x45,0x0e,0x92,0x37,0x3f,0x81,0x70,0x92,0x2b,0x47,0x0b,0x82,0x37,0x43,
0x81,0x65,0x92,0x37,0x48,0x09,0x82,0x2b,0x41,0x81,0x3c,0x82,0x37,0x4e,0x2b,0x92,
0x30,0x47,0x81,0x70,0x92,0x3c,0x43,0x16,0x82,0x30,0x46,0x81,0x3a,0x82,0x3c,0x46,
0x20,0x92,0x30,0x40,0x81,0x70,0x92,0x3c,0x3a,0x1b,0x82,0x30,0x4a,0x81,0x55,0x92,
0x30,0x37,0x1b,0x82,0x3c,0x4b,0x81,0x55,0x92,0x3c,0x40,0x11,0x82,0x30,0x41,0x81,
0x5f,0x92,0x30,0x41,0x23,0x82,0x3c,0x50,0x81,0x4d,0x92,0x3c,0x3c,0x09,0x82,0x30,
0x4a,0x81,0x22,0x82,0x3c,0x50,0x45,0x92,0x2e,0x4d,0x81,0x70,0x92,0x3a,0x3e,0x1b,
0x82,0x2e,0x3e,0x81,0x37,0x82,0x3a,0x1f,0x1e,0x92,0x2e,0x49,0x81,0x70,0x92,0x3a,
0x3b,0x15,0x82,0x2e,0x2d,0x81,0x57,0x82,0x3a,0x28,0x04,0x92,0x2e,0x46,0x81,0x70,
0x92,0x3a,0x3b,0x2d,0x82,0x2e,0x33,0x81,0x43,0x92,0x2e,0x4e,0x02,0x82,0x3a,0x26,
0x81,0x6e,0x92,0x3a,0x3a,0x1e,0x82,0x2e,0x35,0x81,0x39,0x82,0x3a,0x37,0x19,0x92,
0x2b,0x3c,0x81,0x70,0x92,0x37,0x40,0x33,0x82,0x2b,0x4f,0x81,0x2c,0x82,0x37,0x50,
0x11,0x92,0x2b,0x3d,0x81,0x70,0x92,0x37,0x45,0x11,0x82,0x2b,0x50,0x81,0x3c,0x82,
0x37,0x1d,0x23,0x92,0x2b,0x3d,0x81,0x70,0x92,0x37,0x45,0x30,0x82,0x2b,0x4e,0x81,
0x0b,0x82,0x37,0x31,0x35,0x92,0x2b,0x4e,0x81,0x70,0x92,0x37,0x42,0x2b,0x82,0x2b,
0x50,0x81,0x44,0x82,0x37,0x34,0x01,0x92,0x2b,0x4b,0x81,0x70,0x92,0x37,0x3b,0x0b,
0x82,0x2b,0x51,0x81,0x5c,0x82,0x37,0x33,0x09,0x92,0x2b,0x53,0x81,0x70,0x92,0x37,
0x3e,0x13,0x82,0x2b,0x51,0x81,0x4a,0x82,0x37,0x3c,0x13,0x92,0x2b,0x4a,0x81,0x70,
0x92,0x37,0x40,0x0e,0x82,0x2b,0x53,0x81,0x20,0x82,0x37,0x38,0x42,0x92,0x2b,0x4d,
0x81,0x70,0x92,0x37,0x47,0x11,0x82,0x2b,0x4e,0x81,0x03,0x82,0x37,0x49,0x5c,0x92,
0x33,0x48,0x82,0x08,0x82,0x33,0x38,0x81,0x58,0x92,0x3f,0x46,0x81,0x70,0x92,0x33,
0x49,0x1b,0x82,0x3f,0x3a,0x81,0x6d,0x82,0x33,0x39,0x81,0x58,0x92,0x3f,0x4c,0x81,
0x70,0x92,0x33,0x41,0x13,0x82,0x3f,0x3b,0x81,0x5d,0x92,0x3f,0x4a,0x23,0x82,0x33,
0x40,0x76,0x82,0x3f,0x39,0x57,0x92,0x2e,0x53,0x82,0x35,0x82,0x2e,0x34,0x81,0x2b,
0x92,0x3a,0x49,0x81,0x70,0x92,0x2e,0x4c,0x23,0x82,0x3a,0x44,0x81,0x6b,0x82,0x2e,
0x34,0x81,0x52,0x92,0x3a,0x3b,0x81,0x70,0x92,0x2e,0x3f,0x30,0x82,0x3a,0x40,0x81,
0x40,0x92,0x3a,0x3d,0x37,0x82,0x2e,0x37,0x81,0x2d,0x82,0x3a,0x25,0x0c,0x92,0x30,
0x49,0x82,0x01,0x82,0x30,0x47,0x81,0x5f,0x92,0x3c,0x4c,0x81,0x70,0x92,0x30,0x49,
0x28,0x82,0x3c,0x50,0x81,0x7d,0x82,0x30,0x48,0x81,0x3b,0x92,0x3c,0x42,0x81,0x70,
0x92,0x30,0x3c,0x38,0x82,0x3c,0x4f,0x81,0x38,0x92,0x3c,0x38,0x28,0x82,0x30,0x4c,
0x81,0x2b,0x82,0x3c,0x51,0x1d,0x92,0x30,0x41,0x82,0x22,0x82,0x30,0x4b,0x81,0x3e,
0x92,0x3c,0x4f,0x81,0x70,0x92,0x30,0x42,0x47,0x82,0x3c,0x4f,0x81,0x28,0x82,0x30,
0x41,0x81,0x71,0x92,0x3c,0x49,0x81,0x6e,0x82,0x3c,0x43,0x02,0x92,0x30,0x3e,0x81,
0x70,0x92,0x3c,0x42,0x3f,0x82,0x30,0x4b,0x81,0x0b,0x82,0x3c,0x4f,0x26,0x92,0x33,
0x3e,0x81,0x42,0x82,0x33,0x4a,0x82,0x1e,0x92,0x3f,0x4e,0x81,0x70,0x92,0x33,0x4c,
0x32,0x82,0x3f,0x3a,0x81,0x45,0x82,0x33,0x33,0x81,0x69,0x92,0x3f,0x44,0x81,0x6c,
0x82,0x3f,0x34,0x04,0x92,0x33,0x36,0x81,0x78,0x92,0x39,0x41,0x0e,0x82,0x33,0x34,
0x81,0x12,0x82,0x39,0x3b,0x50,0x92,0x2e,0x50,0x82,0x23,0x82,0x2e,0x28,0x81,0x35,
0x92,0x3a,0x49,0x81,0x70,0x92,0x2e,0x4c,0x20,0x82,0x3a,0x41,0x81,0x47,0x82,0x2e,
0x2c,0x81,0x79,0x92,0x3a,0x45,0x81,0x70,0x92,0x2e,0x42,0x2b,0x82,0x3a,0x40,0x81,
0x42,0x92,0x37,0x3c,0x40,0x82,0x2e,0x34,0x81,0x30,0x92,0x2d,0x43,0x1d,0x82,0x37,
0x2f,0x50,0x82,0x2d,0x09,0x7d,0x92,0x39,0x4c,0x71,0x82,0x39,0x63,0x81,0x00,0x92,
0x2d,0x56,0x81,0x47,0x82,0x2d,0x4f,0x2f,0x92,0x39,0x4a,0x7d,0x82,0x39,0x54,0x75,
0x92,0x2d,0x47,0x81,0x6f,0x92,0x39,0x50,0x53,0x82,0x2d,0x48,0x6a,0x82,0x39,0x46,
0x33,0x92,0x2d,0x48,0x81,0x6a,0x92,0x39,0x45,0x2f,0x82,0x2d,0x4a,0x81,0x42,0x82,
0x39,0x40,0x06,0x92,0x2d,0x42,0x81,0x6a,0x92,0x39,0x44,0x45,0x82,0x2d,0x46,0x81,
0x0f,0x82,0x39,0x45,0x1c,0x92,0x2d,0x47,0x81,0x64,0x82,0x2d,0x39,0x0c,0x92,0x39,
0x45,0x81,0x19,0x82,0x39,0x4a,0x57,0x92,0x2d,0x45,0x82,0x08,0xff,0x2f,0x00,0x00,
0x82,0x2d,0x4c,0x4d,0x54,0x72,0x6b,0x00,0x00,0x08,0x51,0xd9,0x7d,0xff,0x20,0x01,
0x00,0x00,0xff,0x03,0x14,0x53,0x74,0x65,0x69,0x6e,0x77,0x61,0x79,0x20,0x47,0x72,
0x61,0x6e,0x64,0x20,0x50,0x69,0x61,0x6e,0x6f,0x00,0xff,0x04,0x10,0x64,0x69,0x73,
0x74,0x20,0x6d,0x75,0x74,0x65,0x20,0x67,0x75,0x69,0x74,0x61,0x72,0x00,0x93,0x3c,
0x4f,0x00,0x93,0x43,0x55,0x72,0x83,0x3c,0x5d,0x0d,0x83,0x43,0x60,0x82,0x61,0x93,
0x3c,0x4c,0x00,0x93,0x43,0x50,0x47,0x83,0x43,0x7f,0x07,0x83,0x3c,0x1c,0x81,0x22,
0x93,0x3c,0x50,0x00,0x93,0x43,0x56,0x49,0x83,0x43,0x20,0x1c,0x83,0x3c,0x0b,0x82,
0x7b,0x93,0x3c,0x56,0x00,0x93,0x43,0x5c,0x56,0x83,0x3c,0x11,0x00,0x83,0x43,0x0e,
0x81,0x1a,0x93,0x3c,0x53,0x00,0x93,0x43,0x5c,0x77,0x83,0x43,0x41,0x05,0x83,0x3c,
0x4b,0x82,0x64,0x93,0x3a,0x44,0x00,0x93,0x41,0x4e,0x81,0x17,0x83,0x3a,0x44,0x02,
0x83,0x41,0x2e,0x82,0x47,0x93,0x3a,0x4d,0x00,0x93,0x41,0x4e,0x4e,0x83,0x3a,0x11,
0x17,0x83,0x41,0x0b,0x81,0x0b,0x93,0x3a,0x4b,0x00,0x93,0x41,0x4c,0x6f,0x83,0x3a,
0x06,0x1b,0x83,0x41,0x41,0x82,0x56,0x93,0x3a,0x49,0x00,0x93,0x41,0x45,0x3c,0x83,
0x3a,0x79,0x05,0x83,0x41,0x33,0x81,0x2f,0x93,0x3a,0x4c,0x00,0x93,0x41,0x42,0x81,
0x04,0x83,0x3a,0x01,0x10,0x83,0x41,0x36,0x82,0x4c,0x93,0x37,0x4a,0x00,0x93,0x3e,
0x46,0x81,0x19,0x83,0x3e,0x40,0x17,0x83,0x37,0x56,0x82,0x34,0x93,0x37,0x50,0x00,
0x93,0x3e,0x57,0x3e,0x83,0x37,0x7f,0x3c,0x83,0x3e,0x64,0x76,0x93,0x37,0x58,0x00,
0x93,0x3e,0x3e,0x5a,0x83,0x37,0x0d,0x25,0x83,0x3e,0x5c,0x82,0x61,0x93,0x37,0x4e,
0x00,0x93,0x3e,0x49,0x3e,0x83,0x37,0x7f,0x03,0x83,0x3e,0x7f,0x81,0x2f,0x93,0x37,
0x4d,0x00,0x93,0x3e,0x4f,0x44,0x83,0x37,0x2e,0x23,0x83,0x3e,0x0b,0x82,0x79,0x93,
0x37,0x55,0x00,0x93,0x3e,0x56,0x55,0x83,0x37,0x12,0x12,0x83,0x3e,0x0a,0x82,0x74,
0x93,0x37,0x51,0x00,0x93,0x3e,0x55,0x41,0x83,0x37,0x7f,0x36,0x83,0x3e,0x06,0x79,
0x93,0x37,0x52,0x00,0x93,0x3e,0x49,0x58,0x83,0x37,0x10,0x2e,0x83,0x3e,0x56,0x82,
0x5a,0x93,0x37,0x50,0x00,0x93,0x3e,0x4d,0x53,0x83,0x37,0x17,0x05,0x83,0x3e,0x10,
0x81,0x19,0x93,0x37,0x55,0x00,0x93,0x3e,0x53,0x44,0x83,0x37,0x7f,0x2c,0x83,0x3e,
0x08,0x82,0x70,0x93,0x3c,0x4d,0x00,0x93,0x43,0x55,0x81,0x19,0x83,0x3c,0x4d,0x00,
0x83,0x43,0x51,0x82,0x47,0x93,0x3c,0x4c,0x00,0x93,0x43,0x52,0x4b,0x83,0x43,0x1e,
0x03,0x83,0x3c,0x21,0x81,0x22,0x93,0x3c,0x4d,0x00,0x93,0x43,0x54,0x41,0x83,0x3c,
0x2e,0x03,0x83,0x43,0x2a,0x83,0x1c,0x93,0x3c,0x51,0x00,0x93,0x43,0x56,0x46,0x83,
0x43,0x1f,0x08,0x83,0x3c,0x1d,0x81,0x22,0x93,0x3c,0x52,0x00,0x93,0x43,0x56,0x81,
0x01,0x83,0x3c,0x4b,0x00,0x83,0x43,0x47,0x82,0x5f,0x93,0x3a,0x44,0x00,0x93,0x41,
0x4f,0x81,0x0c,0x83,0x3a,0x01,0x03,0x83,0x41,0x44,0x82,0x51,0x93,0x3a,0x4a,0x00,
0x93,0x41,0x4b,0x44,0x83,0x41,0x2c,0x1f,0x83,0x3a,0x0a,0x81,0x0d,0x93,0x3a,0x4a,
0x00,0x93,0x41,0x53,0x60,0x83,0x3a,0x09,0x2c,0x83,0x41,0x45,0x82,0x54,0x93,0x3a,
0x47,0x00,0x93,0x41,0x37,0x41,0x83,0x41,0x44,0x03,0x83,0x3a,0x79,0x81,0x2c,0x93,
0x3a,0x42,0x00,0x93,0x41,0x44,0x55,0x83,0x3a,0x10,0x47,0x83,0x41,0x43,0x82,0x44,
0x93,0x37,0x4a,0x00,0x93,0x3e,0x4d,0x81,0x2b,0x83,0x37,0x3f,0x05,0x83,0x3e,0x40,
0x82,0x30,0x93,0x37,0x50,0x00,0x93,0x3e,0x50,0x58,0x83,0x37,0x10,0x03,0x83,0x3e,
0x0e,0x81,0x15,0x93,0x37,0x57,0x00,0x93,0x3e,0x53,0x3f,0x83,0x37,0x7f,0x34,0x83,
0x3e,0x07,0x82,0x6d,0x93,0x37,0x50,0x00,0x93,0x3e,0x4e,0x43,0x83,0x3e,0x26,0x03,
0x83,0x37,0x24,0x81,0x2a,0x93,0x37,0x56,0x00,0x93,0x3e,0x57,0x51,0x83,0x37,0x13,
0x33,0x83,0x3e,0x4d,0x82,0x5c,0x93,0x37,0x5a,0x00,0x93,0x3e,0x57,0x41,0x83,0x37,
0x7f,0x05,0x83,0x3e,0x1e,0x83,0x1a,0x93,0x37,0x54,0x00,0x93,0x3e,0x50,0x34,0x83,
0x37,0x7f,0x03,0x83,0x3e,0x7f,0x83,0x29,0x93,0x37,0x5a,0x00,0x93,0x3e,0x57,0x37,
0x83,0x37,0x7f,0x07,0x83,0x3e,0x7f,0x83,0x22,0x93,0x37,0x5a,0x00,0x93,0x3e,0x5b,
0x49,0x83,0x37,0x1c,0x07,0x83,0x3e,0x15,0xdd,0x10,0x93,0x3c,0x4b,0x00,0x93,0x43,
0x50,0x72,0x83,0x43,0x62,0x05,0x83,0x3c,0x56,0x82,0x69,0x93,0x3c,0x4c,0x00,0x93,
0x43,0x4f,0x44,0x83,0x43,0x29,0x0d,0x83,0x3c,0x19,0x81,0x1f,0x93,0x3c,0x50,0x00,
0x93,0x43,0x51,0x41,0x83,0x43,0x2c,0x0f,0x83,0x3c,0x17,0x83,0x10,0x93,0x3c,0x4e,
0x00,0x93,0x43,0x50,0x3c,0x83,0x43,0x7f,0x0a,0x83,0x3c,0x24,0x81,0x2a,0x93,0x3c,
0x50,0x00,0x93,0x43,0x53,0x44,0x83,0x43,0x27,0x24,0x83,0x3c,0x0d,0x82,0x78,0x93,
0x3a,0x43,0x00,0x93,0x41,0x47,0x7f,0x83,0x3a,0x1f,0x12,0x83,0x41,0x39,0x82,0x4f,
0x93,0x3a,0x47,0x00,0x93,0x41,0x47,0x44,0x83,0x41,0x2b,0x03,0x83,0x3a,0x1c,0x81,
0x29,0x93,0x3a,0x42,0x00,0x93,0x41,0x4c,0x44,0x83,0x3a,0x21,0x29,0x83,0x41,0x09,
0x82,0x73,0x93,0x3a,0x41,0x00,0x93,0x41,0x40,0x37,0x83,0x3a,0x79,0x0a,0x83,0x41,
0x35,0x81,0x2f,0x93,0x3a,0x46,0x00,0x93,0x41,0x3c,0x43,0x83,0x41,0x39,0x03,0x83,
0x3a,0x1d,0x83,0x1a,0x93,0x37,0x5a,0x00,0x93,0x3e,0x51,0x49,0x83,0x3e,0x1f,0x29,
0x83,0x37,0x67,0x82,0x6e,0x93,0x37,0x52,0x00,0x93,0x3e,0x50,0x53,0x83,0x37,0x15,
0x05,0x83,0x3e,0x0e,0x81,0x18,0x93,0x37,0x56,0x00,0x93,0x3e,0x4f,0x58,0x83,0x3e,
0x12,0x05,0x83,0x37,0x0e,0x83,0x03,0x93,0x37,0x55,0x00,0x93,0x3e,0x53,0x3e,0x83,
0x37,0x7f,0x00,0x83,0x3e,0x7f,0x81,0x32,0x93,0x37,0x57,0x00,0x93,0x3e,0x55,0x49,
0x83,0x3e,0x1d,0x02,0x83,0x37,0x1d,0x83,0x15,0x93,0x37,0x54,0x00,0x93,0x3e,0x53,
0x46,0x83,0x3e,0x20,0x0d,0x83,0x37,0x11,0x83,0x0d,0x93,0x37,0x50,0x00,0x93,0x3e,
0x51,0x3e,0x83,0x37,0x7f,0x0b,0x83,0x3e,0x1d,0x81,0x27,0x93,0x37,0x51,0x00,0x93,
0x3e,0x4f,0x51,0x83,0x37,0x15,0x14,0x83,0x3e,0x0b,0x82,0x7b,0x93,0x37,0x50,0x00,
0x93,0x3e,0x4d,0x41,0x83,0x37,0x7f,0x00,0x83,0x3e,0x7f,0x81,0x2f,0x93,0x37,0x51,
0x00,0x93,0x3e,0x55,0x3c,0x83,0x37,0x7f,0x38,0x83,0x3e,0x2f,0x82,0x6c,0x93,0x3c,
0x4a,0x00,0x93,0x43,0x56,0x68,0x83,0x43,0x0a,0x17,0x83,0x3c,0x4f,0x82,0x61,0x93,
0x3c,0x47,0x00,0x93,0x43,0x48,0x3c,0x83,0x43,0x7f,0x15,0x83,0x3c,0x1d,0x81,0x1f,
0x93,0x3c,0x50,0x00,0x93,0x43,0x50,0x46,0x83,0x43,0x27,0x2c,0x83,0x3c,0x3b,0x82,
0x6e,0x93,0x3c,0x52,0x00,0x93,0x43,0x52,0x3c,0x83,0x43,0x7f,0x12,0x83,0x3c,0x17,
0x81,0x22,0x93,0x3c,0x4d,0x00,0x93,0x43,0x4e,0x44,0x83,0x43,0x7f,0x03,0x83,0x3c,
0x26,0x83,0x19,0x93,0x3a,0x39,0x00,0x93,0x41,0x3e,0x81,0x0a,0x83,0x3a,0x2d,0x17,
0x83,0x41,0x40,0x82,0x3f,0x93,0x3a,0x44,0x00,0x93,0x41,0x45,0x50,0x83,0x3a,0x15,
0x00,0x83,0x41,0x1a,0x81,0x20,0x93,0x3a,0x4c,0x00,0x93,0x41,0x4d,0x44,0x83,0x3a,
0x20,0x46,0x83,0x41,0x3b,0x82,0x56,0x93,0x3a,0x41,0x00,0x93,0x41,0x4b,0x3e,0x83,
0x3a,0x79,0x05,0x83,0x41,0x29,0x81,0x2d,0x93,0x3a,0x47,0x00,0x93,0x41,0x4d,0x60,
0x83,0x3a,0x0a,0x31,0x83,0x41,0x56,0x82,0x4f,0x93,0x37,0x50,0x00,0x93,0x3e,0x4e,
0x81,0x19,0x83,0x3e,0x41,0x27,0x83,0x37,0x59,0x82,0x20,0x93,0x37,0x4d,0x00,0x93,
0x3e,0x47,0x53,0x83,0x3e,0x1a,0x10,0x83,0x37,0x0d,0x81,0x0d,0x93,0x37,0x4e,0x00,
0x93,0x3e,0x51,0x4c,0x83,0x3e,0x1a,0x0f,0x83,0x37,0x12,0x83,0x05,0x93,0x37,0x50,
0x00,0x93,0x3e,0x4a,0x41,0x83,0x3e,0x7f,0x05,0x83,0x37,0x26,0x81,0x2a,0x93,0x37,
0x52,0x00,0x93,0x3e,0x51,0x58,0x83,0x37,0x11,0x1a,0x83,0x3e,0x08,0x82,0x6e,0x93,
0x37,0x59,0x00,0x93,0x3e,0x56,0x53,0x83,0x3e,0x13,0x02,0x83,0x37,0x11,0x83,0x0b,
0x93,0x37,0x54,0x00,0x93,0x3e,0x4d,0x46,0x83,0x3e,0x26,0x10,0x83,0x37,0x12,0x83,
0x0a,0x93,0x37,0x56,0x00,0x93,0x3e,0x54,0x46,0x83,0x3e,0x20,0x0a,0x83,0x37,0x15,
0x83,0x10,0x93,0x37,0x53,0x00,0x93,0x3e,0x52,0x41,0x83,0x37,0x7f,0x08,0x83,0x3e,
0x1c,0x83,0x17,0x93,0x33,0x56,0x00,0x93,0x3a,0x4d,0x81,0x1c,0x83,0x3a,0x34,0x14,
0x83,0x33,0x3c,0x82,0x30,0x93,0x33,0x54,0x00,0x93,0x3a,0x4c,0x65,0x83,0x3a,0x08,
0x0d,0x83,0x33,0x1d,0x7e,0x93,0x33,0x56,0x00,0x93,0x3a,0x48,0x81,0x3b,0x83,0x33,
0x2f,0x00,0x83,0x3a,0x3d,0x82,0x25,0x93,0x33,0x5c,0x00,0x93,0x3a,0x47,0x41,0x83,
0x3a,0x79,0x0f,0x83,0x33,0x0e,0x81,0x20,0x93,0x33,0x57,0x00,0x93,0x3a,0x48,0x81,
0x02,0x83,0x33,0x2c,0x00,0x83,0x3a,0x3f,0x82,0x5e,0x93,0x2e,0x4e,0x00,0x93,0x35,
0x31,0x81,0x46,0x83,0x2e,0x3c,0x3d,0x83,0x35,0x51,0x81,0x5d,0x93,0x2e,0x4d,0x00,
0x93,0x35,0x3d,0x6a,0x83,0x2e,0x06,0x2c,0x83,0x35,0x48,0x5a,0x93,0x2e,0x51,0x00,
0x93,0x35,0x43,0x75,0x83,0x2e,0x04,0x55,0x83,0x35,0x39,0x82,0x16,0x93,0x2e,0x4b,
0x00,0x93,0x35,0x3d,0x4b,0x83,0x35,0x2d,0x03,0x83,0x2e,0x0f,0x81,0x22,0x93,0x2e,
0x52,0x00,0x93,0x35,0x4a,0x6d,0x83,0x2e,0x43,0x2c,0x83,0x35,0x5b,0x82,0x47,0x93,
0x30,0x51,0x00,0x93,0x37,0x51,0x81,0x55,0x83,0x30,0x4b,0x0d,0x83,0x37,0x51,0x81,
0x7e,0x93,0x30,0x48,0x00,0x93,0x37,0x47,0x6f,0x83,0x30,0x09,0x0d,0x83,0x37,0x33,
0x74,0x93,0x30,0x4e,0x00,0x93,0x37,0x44,0x81,0x57,0x83,0x37,0x46,0x06,0x83,0x30,
0x46,0x82,0x03,0x93,0x30,0x53,0x00,0x93,0x37,0x50,0x53,0x83,0x37,0x14,0x1a,0x83,
0x30,0x09,0x81,0x03,0x93,0x30,0x52,0x00,0x93,0x37,0x55,0x81,0x02,0x83,0x30,0x31,
0x02,0x83,0x37,0x43,0x82,0x5c,0x93,0x30,0x59,0x00,0x93,0x37,0x57,0x81,0x2e,0x83,
0x37,0x49,0x1c,0x83,0x30,0x4d,0x82,0x16,0x93,0x30,0x56,0x00,0x93,0x37,0x56,0x3f,
0x83,0x37,0x7f,0x21,0x83,0x30,0x0b,0x81,0x10,0x93,0x30,0x53,0x00,0x93,0x37,0x53,
0x7a,0x83,0x30,0x25,0x15,0x83,0x37,0x53,0x82,0x51,0x93,0x30,0x4b,0x00,0x93,0x37,
0x4c,0x44,0x83,0x37,0x7f,0x1f,0x83,0x30,0x0c,0x81,0x0d,0x93,0x30,0x4f,0x00,0x93,
0x37,0x51,0x5b,0x83,0x30,0x0e,0x12,0x83,0x37,0x0a,0x82,0x73,0x93,0x33,0x56,0x00,
0x93,0x3a,0x48,0x81,0x4d,0x83,0x3a,0x39,0x15,0x83,0x33,0x3c,0x81,0x7e,0x93,0x33,
0x4c,0x00,0x93,0x3a,0x3d,0x49,0x83,0x33,0x16,0x03,0x83,0x3a,0x1e,0x81,0x24,0x93,
0x33,0x55,0x00,0x93,0x3a,0x48,0x81,0x0f,0x83,0x33,0x33,0x07,0x83,0x3a,0x30,0x82,
0x4a,0x93,0x33,0x4a,0x00,0x93,0x3a,0x37,0x41,0x83,0x33,0x79,0x05,0x83,0x3a,0x29,
0x81,0x2a,0x93,0x33,0x50,0x00,0x93,0x3a,0x47,0x6d,0x83,0x3a,0x07,0x0f,0x83,0x33,
0x02,0x82,0x64,0x93,0x2e,0x4f,0x00,0x93,0x35,0x46,0x81,0x14,0x83,0x2e,0x36,0x39,
0x83,0x35,0x48,0x82,0x13,0x93,0x2e,0x4c,0x00,0x93,0x35,0x34,0x48,0x83,0x2e,0x15,
0x0e,0x83,0x35,0x2a,0x81,0x1a,0x93,0x2e,0x41,0x00,0x93,0x35,0x3b,0x7a,0x83,0x2e,
0x03,0x65,0x83,0x35,0x3e,0x82,0x01,0x93,0x2e,0x44,0x00,0x93,0x35,0x3d,0x49,0x83,
0x2e,0x17,0x0d,0x83,0x35,0x1a,0x81,0x1a,0x93,0x2e,0x55,0x00,0x93,0x35,0x45,0x6b,
0x83,0x2e,0x37,0x1e,0x83,0x35,0x59,0x82,0x57,0x93,0x2d,0x44,0x00,0x93,0x34,0x4d,
0x00,0x93,0x39,0x45,0x81,0x57,0x83,0x34,0x47,0x0e,0x83,0x2d,0x4f,0x07,0x83,0x39,
0x55,0x81,0x79,0x93,0x2d,0x3e,0x00,0x93,0x34,0x32,0x00,0x93,0x39,0x32,0x4b,0x83,
0x34,0x2e,0x39,0x83,0x2d,0x38,0x14,0x83,0x39,0x48,0x53,0x93,0x2d,0x42,0x00,0x93,
0x34,0x4a,0x00,0x93,0x39,0x39,0x81,0x26,0x83,0x34,0x53,0x34,0x83,0x2d,0x4d,0x05,
0x83,0x39,0x56,0x82,0x01,0x93,0x2d,0x43,0x00,0x93,0x34,0x40,0x00,0x93,0x39,0x3c,
0x41,0x83,0x34,0x7f,0x27,0x83,0x39,0x15,0x17,0x83,0x2d,0x55,0x71,0x93,0x2d,0x48,
0x00,0x93,0x34,0x52,0x00,0x93,0x39,0x44,0x7f,0x83,0x2d,0x36,0x08,0x83,0x34,0x3e,
0x07,0x83,0x39,0x4a,0x82,0x52,0x93,0x2d,0x68,0x00,0x93,0x34,0x59,0x00,0x93,0x39,
0x5f,0x6d,0x83,0x39,0x50,0x05,0x83,0x34,0x05,0x1a,0x83,0x2d,0x0d,0x82,0x54,0x93,
0x2d,0x61,0x00,0x93,0x34,0x55,0x00,0x93,0x39,0x52,0x32,0x83,0x34,0x7f,0x17,0x83,
0x39,0x25,0x33,0x83,0x2d,0x43,0x82,0x64,0x93,0x2d,0x5a,0x00,0x93,0x34,0x48,0x00,
0x93,0x39,0x4f,0x34,0x83,0x34,0x7f,0x12,0x83,0x39,0x27,0x36,0x83,0x2d,0x59,0x82,
0x64,0x93,0x2d,0x5c,0x00,0x93,0x34,0x4f,0x00,0x93,0x39,0x4d,0x34,0x83,0x34,0x7f,
0x4e,0x83,0x39,0x5a,0x0a,0xff,0x2f,0x00,0x00,0x83,0x2d,0x3f,0x4d,0x54,0x72,0x6b,
0x00,0x00,0x0a,0x8a,0x00,0xb4,0x07,0x1e,0x00,0x94,0x32,0x4e,0x00,0x94,0x39,0x4f,
0x00,0x94,0x3e,0x51,0x3c,0x84,0x39,0x7f,0x15,0x84,0x32,0x15,0x02,0x84,0x3e,0x13,
0x84,0x7a,0x94,0x32,0x47,0x00,0x94,0x39,0x48,0x00,0x94,0x3e,0x4c,0x43,0x84,0x39,
0x7f,0x00,0x84,0x3e,0x31,0x25,0x84,0x32,0x33,0x84,0x68,0x94,0x32,0x47,0x00,0x94,
0x39,0x4c,0x00,0x94,0x3e,0x50,0x3f,0x84,0x39,0x7f,0x21,0x84,0x32,0x0e,0x22,0x84,
0x3e,0x4c,0x82,0x5e,0x94,0x32,0x57,0x00,0x94,0x39,0x4e,0x00,0x94,0x3e,0x57,0x32,
0x84,0x39,0x7f,0x24,0x84,0x3e,0x0e,0x2c,0x84,0x32,0x52,0x84,0x4e,0x94,0x32,0x38,
0x00,0x94,0x39,0x46,0x00,0x94,0x3e,0x41,0x3c,0x84,0x39,0x7f,0x08,0x84,0x32,0x3d,
0x05,0x84,0x3e,0x2e,0x81,0x27,0x94,0x33,0x35,0x00,0x94,0x3a,0x30,0x00,0x94,0x3f,
0x36,0x44,0x84,0x3a,0x3e,0x41,0x84,0x3f,0x40,0x16,0x84,0x33,0x39,0x82,0x45,0x94,
0x33,0x49,0x00,0x94,0x3a,0x1d,0x00,0x94,0x3f,0x42,0x3f,0x84,0x3a,0x79,0x31,0x84,
0x3f,0x05,0x14,0x84,0x33,0x47,0x82,0x5c,0x94,0x32,0x4a,0x00,0x94,0x39,0x44,0x00,
0x94,0x3e,0x48,0x37,0x84,0x39,0x7f,0x12,0x84,0x3e,0x26,0x25,0x84,0x32,0x5f,0x84,
0x62,0x94,0x32,0x3a,0x00,0x94,0x39,0x46,0x00,0x94,0x3e,0x41,0x41,0x84,0x39,0x7f,
0x03,0x84,0x3e,0x7f,0x03,0x84,0x32,0x31,0x85,0x09,0x94,0x32,0x3b,0x00,0x94,0x39,
0x3e,0x00,0x94,0x3e,0x43,0x41,0x84,0x39,0x7f,0x05,0x84,0x3e,0x2d,0x08,0x84,0x32,
0x21,0x83,0x12,0x94,0x32,0x44,0x00,0x94,0x39,0x45,0x00,0x94,0x3e,0x48,0x3a,0x84,
0x39,0x7f,0x09,0x84,0x3e,0x7f,0x0b,0x84,0x32,0x1b,0x85,0x02,0x94,0x32,0x40,0x00,
0x94,0x39,0x41,0x00,0x94,0x3e,0x46,0x39,0x84,0x39,0x7f,0x0d,0x84,0x3e,0x2d,0x05,
0x84,0x32,0x23,0x81,0x25,0x94,0x33,0x2e,0x00,0x94,0x3a,0x25,0x00,0x94,0x3f,0x3d,
0x4e,0x84,0x3a,0x46,0x1c,0x84,0x33,0x18,0x0d,0x84,0x3f,0x04,0x82,0x69,0x94,0x33,
0x45,0x00,0x94,0x3a,0x39,0x00,0x94,0x3f,0x45,0x37,0x84,0x3a,0x79,0x24,0x84,0x3f,
0x0a,0x0a,0x84,0x33,0x08,0x82,0x7b,0x94,0x32,0x50,0x00,0x94,0x39,0x44,0x00,0x94,
0x3e,0x49,0x34,0x84,0x39,0x7f,0x0d,0x84,0x3e,0x30,0x41,0x84,0x32,0x50,0x84,0x4e,
0x94,0x32,0x41,0x00,0x94,0x39,0x43,0x00,0x94,0x3e,0x40,0x39,0x84,0x3e,0x7f,0x02,
0x84,0x39,0x7f,0x08,0x84,0x32,0x7f,0x85,0x0d,0x94,0x32,0x48,0x00,0x94,0x39,0x48,
0x00,0x94,0x3e,0x44,0x36,0x84,0x39,0x7f,0x09,0x84,0x3e,0x7f,0x0c,0x84,0x32,0x1f,
0x83,0x15,0x94,0x32,0x52,0x00,0x94,0x39,0x40,0x00,0x94,0x3e,0x4c,0x37,0x84,0x3e,
0x7f,0x03,0x84,0x39,0x7f,0x17,0x84,0x32,0x11,0x84,0x7f,0x94,0x32,0x32,0x00,0x94,
0x39,0x3f,0x00,0x94,0x3e,0x41,0x3c,0x84,0x39,0x7f,0x02,0x84,0x3e,0x7f,0x06,0x84,
0x32,0x61,0x81,0x2c,0x94,0x33,0x1a,0x00,0x94,0x3a,0x2d,0x00,0x94,0x3f,0x33,0x63,
0x84,0x3a,0x24,0x0a,0x84,0x33,0x2e,0x1f,0x84,0x3f,0x28,0x82,0x54,0x94,0x33,0x3c,
0x00,0x94,0x3a,0x41,0x00,0x94,0x3f,0x3e,0x5b,0x84,0x3a,0x0b,0x22,0x84,0x33,0x43,
0x0a,0x84,0x3f,0x44,0x82,0x59,0x94,0x3c,0x46,0x00,0x94,0x43,0x3e,0x81,0x21,0x84,
0x43,0x50,0x0a,0x84,0x3c,0x48,0x82,0x35,0x94,0x3c,0x3f,0x00,0x94,0x43,0x4a,0x43,
0x84,0x43,0x2b,0x3e,0x84,0x3c,0x43,0x6f,0x94,0x3c,0x40,0x00,0x94,0x43,0x48,0x46,
0x84,0x43,0x28,0x17,0x84,0x3c,0x13,0x83,0x03,0x94,0x3c,0x47,0x00,0x94,0x43,0x48,
0x41,0x84,0x43,0x7f,0x07,0x84,0x3c,0x25,0x81,0x28,0x94,0x3c,0x45,0x00,0x94,0x43,
0x50,0x3e,0x84,0x43,0x7f,0x05,0x84,0x3c,0x32,0x83,0x1d,0x94,0x3a,0x38,0x00,0x94,
0x41,0x4d,0x41,0x84,0x3a,0x48,0x34,0x84,0x41,0x66,0x82,0x6b,0x94,0x3a,0x4a,0x00,
0x94,0x41,0x48,0x43,0x84,0x3a,0x1c,0x20,0x84,0x41,0x0d,0x81,0x0d,0x94,0x3a,0x44,
0x00,0x94,0x41,0x3e,0x7a,0x84,0x41,0x07,0x0b,0x84,0x3a,0x43,0x82,0x5b,0x94,0x3a,
0x43,0x00,0x94,0x41,0x45,0x41,0x84,0x3a,0x23,0x07,0x84,0x41,0x25,0x81,0x28,0x94,
0x3a,0x47,0x00,0x94,0x41,0x42,0x4b,0x84,0x3a,0x15,0x0b,0x84,0x41,0x17,0x83,0x0a,
0x94,0x37,0x4a,0x00,0x94,0x3e,0x46,0x7f,0x84,0x37,0x65,0x06,0x84,0x3e,0x5b,0x82,
0x5b,0x94,0x37,0x49,0x00,0x94,0x3e,0x45,0x3f,0x84,0x37,0x7f,0x08,0x84,0x3e,0x28,
0x81,0x29,0x94,0x37,0x4e,0x00,0x94,0x3e,0x43,0x41,0x84,0x37,0x7f,0x00,0x84,0x3e,
0x7f,0x83,0x1f,0x94,0x37,0x46,0x00,0x94,0x3e,0x43,0x3c,0x84,0x37,0x7f,0x02,0x84,
0x3e,0x7f,0x81,0x32,0x94,0x37,0x4b,0x00,0x94,0x3e,0x4d,0x34,0x84,0x37,0x7f,0x05,
0x84,0x3e,0x7f,0x83,0x27,0x94,0x37,0x51,0x00,0x94,0x3e,0x50,0x46,0x84,0x37,0x27,
0x22,0x84,0x3e,0x0b,0x8e,0x18,0x94,0x3c,0x4c,0x00,0x94,0x43,0x50,0x81,0x07,0x84,
0x3c,0x59,0x03,0x84,0x43,0x55,0x82,0x56,0x94,0x3c,0x4a,0x00,0x94,0x43,0x45,0x44,
0x84,0x43,0x34,0x2c,0x84,0x3c,0x09,0x81,0x00,0x94,0x3c,0x40,0x00,0x94,0x43,0x4d,
0x43,0x84,0x43,0x2b,0x06,0x84,0x3c,0x2b,0x83,0x17,0x94,0x3c,0x4c,0x00,0x94,0x43,
0x45,0x3c,0x84,0x43,0x7f,0x15,0x84,0x3c,0x15,0x81,0x1f,0x94,0x3c,0x46,0x00,0x94,
0x43,0x43,0x43,0x84,0x3c,0x2c,0x0e,0x84,0x43,0x1f,0x83,0x0f,0x94,0x3a,0x42,0x00,
0x94,0x41,0x3d,0x81,0x14,0x84,0x3a,0x26,0x05,0x84,0x41,0x4c,0x82,0x47,0x94,0x3a,
0x3b,0x00,0x94,0x41,0x35,0x49,0x84,0x3a,0x1f,0x0a,0x84,0x41,0x23,0x81,0x1d,0x94,
0x3a,0x3b,0x00,0x94,0x41,0x41,0x41,0x84,0x3a,0x27,0x3e,0x84,0x41,0x05,0x82,0x61,
0x94,0x3a,0x3c,0x00,0x94,0x41,0x48,0x3b,0x84,0x3a,0x79,0x0b,0x84,0x41,0x27,0x81,
0x2a,0x94,0x3a,0x41,0x00,0x94,0x41,0x43,0x3c,0x84,0x3a,0x79,0x1c,0x84,0x41,0x12,
0x83,0x08,0x94,0x37,0x47,0x00,0x94,0x3e,0x43,0x81,0x0a,0x84,0x37,0x3e,0x07,0x84,
0x3e,0x3f,0x82,0x4f,0x94,0x37,0x4b,0x00,0x94,0x3e,0x40,0x44,0x84,0x3e,0x30,0x03,
0x84,0x37,0x2d,0x81,0x29,0x94,0x37,0x49,0x00,0x94,0x3e,0x46,0x41,0x84,0x37,0x31,
0x0b,0x84,0x3e,0x22,0x83,0x14,0x94,0x37,0x45,0x00,0x94,0x3e,0x42,0x3e,0x84,0x37,
0x7f,0x03,0x84,0x3e,0x7f,0x81,0x2f,0x94,0x37,0x41,0x00,0x94,0x3e,0x3c,0x3f,0x84,
0x37,0x7f,0x0c,0x84,0x3e,0x2a,0x83,0x15,0x94,0x37,0x51,0x00,0x94,0x3e,0x50,0x51,
0x84,0x3e,0x16,0x17,0x84,0x37,0x0c,0x8e,0x18,0x94,0x32,0x4f,0x00,0x94,0x39,0x49,
0x00,0x94,0x3e,0x52,0x36,0x84,0x39,0x7f,0x1a,0x84,0x3e,0x15,0x27,0x84,0x32,0x3a,
0x84,0x5d,0x94,0x32,0x4f,0x00,0x94,0x39,0x44,0x00,0x94,0x3e,0x41,0x37,0x84,0x39,
0x7f,0x0e,0x84,0x3e,0x3b,0x1b,0x84,0x32,0x0c,0x84,0x6c,0x94,0x32,0x4a,0x00,0x94,
0x39,0x4e,0x00,0x94,0x3e,0x50,0x41,0x84,0x39,0x7f,0x06,0x84,0x3e,0x27,0x1e,0x84,
0x32,0x0c,0x82,0x7b,0x94,0x32,0x50,0x00,0x94,0x39,0x4f,0x00,0x94,0x3e,0x4e,0x34,
0x84,0x39,0x7f,0x0f,0x84,0x3e,0x7f,0x06,0x84,0x32,0x1c,0x85,0x07,0x94,0x32,0x3a,
0x00,0x94,0x39,0x39,0x00,0x94,0x3e,0x45,0x43,0x84,0x32,0x7f,0x00,0x84,0x39,0x7f,
0x15,0x84,0x3e,0x14,0x81,0x18,0x94,0x33,0x2f,0x00,0x94,0x3a,0x23,0x00,0x94,0x3f,
0x38,0x6a,0x84,0x3a,0x29,0x10,0x84,0x33,0x09,0x0f,0x84,0x3f,0x2d,0x82,0x57,0x94,
0x33,0x43,0x00,0x94,0x3a,0x39,0x00,0x94,0x3f,0x3f,0x44,0x84,0x3a,0x79,0x43,0x84,
0x3f,0x3f,0x05,0x84,0x33,0x3e,0x82,0x54,0x94,0x32,0x45,0x00,0x94,0x39,0x3f,0x00,
0x94,0x3e,0x44,0x3c,0x84,0x39,0x7f,0x17,0x84,0x3e,0x21,0x34,0x84,0x32,0x4f,0x84,
0x49,0x94,0x32,0x42,0x00,0x94,0x39,0x44,0x00,0x94,0x3e,0x49,0x39,0x84,0x39,0x7f,
0x1a,0x84,0x3e,0x18,0x05,0x84,0x32,0x15,0x84,0x78,0x94,0x32,0x40,0x00,0x94,0x39,
0x43,0x00,0x94,0x3e,0x4a,0x37,0x84,0x39,0x7f,0x0f,0x84,0x3e,0x26,0x0b,0x84,0x32,
0x34,0x83,0x0f,0x94,0x32,0x57,0x00,0x94,0x39,0x46,0x00,0x94,0x3e,0x4f,0x34,0x84,
0x39,0x7f,0x12,0x84,0x3e,0x25,0x2a,0x84,0x32,0x6b,0x84,0x60,0x94,0x32,0x3f,0x00,
0x94,0x39,0x48,0x00,0x94,0x3e,0x4a,0x37,0x84,0x39,0x7f,0x07,0x84,0x32,0x7f,0x10,
0x84,0x3e,0x1b,0x81,0x22,0x94,0x33,0x3e,0x00,0x94,0x3a,0x45,0x00,0x94,0x3f,0x47,
0x39,0x84,0x3a,0x79,0x0b,0x84,0x3f,0x1d,0x05,0x84,0x33,0x1d,0x83,0x17,0x94,0x33,
0x4c,0x00,0x94,0x3a,0x42,0x00,0x94,0x3f,0x4c,0x37,0x84,0x3a,0x79,0x40,0x84,0x3f,
0x2c,0x06,0x84,0x33,0x02,0x82,0x63,0x94,0x32,0x4a,0x00,0x94,0x39,0x3e,0x00,0x94,
0x3e,0x48,0x3c,0x84,0x39,0x7f,0x27,0x84,0x3e,0x0e,0x1f,0x84,0x32,0x59,0x84,0x4e,
0x94,0x32,0x46,0x00,0x94,0x39,0x47,0x00,0x94,0x3e,0x4c,0x3c,0x84,0x39,0x7f,0x2c,
0x84,0x3e,0x0b,0x0c,0x84,0x32,0x36,0x84,0x5c,0x94,0x32,0x49,0x00,0x94,0x39,0x3b,
0x00,0x94,0x3e,0x4a,0x3c,0x84,0x39,0x7f,0x08,0x84,0x3e,0x2c,0x14,0x84,0x32,0x10,
0x83,0x08,0x94,0x32,0x50,0x00,0x94,0x39,0x4c,0x00,0x94,0x3e,0x50,0x39,0x84,0x39,
0x7f,0x24,0x84,0x3e,0x0e,0x13,0x84,0x32,0x60,0x84,0x60,0x94,0x32,0x3e,0x00,0x94,
0x39,0x3c,0x00,0x94,0x3e,0x40,0x3e,0x84,0x39,0x7f,0x0b,0x84,0x3e,0x2b,0x02,0x84,
0x32,0x1f,0x81,0x25,0x94,0x33,0x48,0x00,0x94,0x3a,0x33,0x00,0x94,0x3f,0x49,0x4b,
0x84,0x3a,0x2a,0x3c,0x84,0x3f,0x01,0x0f,0x84,0x33,0x01,0x82,0x4a,0x94,0x33,0x44,
0x00,0x94,0x3a,0x40,0x00,0x94,0x3f,0x41,0x3f,0x84,0x3a,0x79,0x3e,0x84,0x33,0x4b,
0x0f,0x84,0x3f,0x40,0x82,0x54,0x94,0x3c,0x40,0x00,0x94,0x43,0x50,0x7a,0x84,0x43,
0x66,0x17,0x84,0x3c,0x58,0x82,0x4d,0x94,0x3c,0x48,0x00,0x94,0x43,0x4c,0x60,0x84,
0x3c,0x0e,0x07,0x84,0x43,0x0c,0x81,0x02,0x94,0x3c,0x48,0x00,0x94,0x43,0x4c,0x61,
0x84,0x3c,0x0e,0x07,0x84,0x43,0x0c,0x83,0x01,0x94,0x3c,0x48,0x00,0x94,0x43,0x4a,
0x41,0x84,0x3c,0x7f,0x00,0x84,0x43,0x7f,0x81,0x2f,0x94,0x3c,0x51,0x00,0x94,0x43,
0x51,0x55,0x84,0x43,0x14,0x32,0x84,0x3c,0x47,0x82,0x59,0x94,0x3a,0x3b,0x00,0x94,
0x41,0x43,0x81,0x1f,0x84,0x41,0x4a,0x11,0x84,0x3a,0x3a,0x82,0x30,0x94,0x3a,0x45,
0x00,0x94,0x41,0x47,0x46,0x84,0x3a,0x1e,0x08,0x84,0x41,0x1b,0x81,0x22,0x94,0x3a,
0x4b,0x00,0x94,0x41,0x54,0x4e,0x84,0x3a,0x11,0x31,0x84,0x41,0x33,0x82,0x61,0x94,
0x3a,0x44,0x00,0x94,0x41,0x3f,0x36,0x84,0x3a,0x79,0x08,0x84,0x41,0x7f,0x81,0x32,
0x94,0x3a,0x47,0x00,0x94,0x41,0x41,0x53,0x84,0x3a,0x0e,0x2a,0x84,0x41,0x1f,0x82,
0x63,0x94,0x37,0x49,0x00,0x94,0x3e,0x3d,0x81,0x0f,0x84,0x37,0x4f,0x05,0x84,0x3e,
0x53,0x82,0x4c,0x94,0x37,0x47,0x00,0x94,0x3e,0x4b,0x3e,0x84,0x37,0x7f,0x2d,0x84,
0x3e,0x09,0x81,0x05,0x94,0x37,0x50,0x00,0x94,0x3e,0x47,0x37,0x84,0x37,0x7f,0x2c,
0x84,0x3e,0x0d,0x82,0x7d,0x94,0x37,0x49,0x00,0x94,0x3e,0x3f,0x3c,0x84,0x37,0x7f,
0x05,0x84,0x3e,0x7f,0x81,0x2f,0x94,0x37,0x4c,0x00,0x94,0x3e,0x40,0x3c,0x84,0x37,
0x7f,0x17,0x84,0x3e,0x1c,0x83,0x0d,0x94,0x37,0x59,0x00,0x94,0x3e,0x51,0x59,0x84,
0x3e,0x0e,0x14,0x84,0x37,0x09,0x8e,0x13,0x94,0x3c,0x4d,0x00,0x94,0x43,0x4b,0x3e,
0x84,0x43,0x7f,0x44,0x84,0x3c,0x49,0x82,0x5e,0x94,0x3c,0x41,0x00,0x94,0x43,0x44,
0x44,0x84,0x3c,0x3d,0x03,0x84,0x43,0x2a,0x81,0x29,0x94,0x3c,0x48,0x00,0x94,0x43,
0x42,0x3e,0x84,0x43,0x7f,0x05,0x84,0x3c,0x2f,0x83,0x1d,0x94,0x3c,0x41,0x00,0x94,
0x43,0x41,0x43,0x84,0x3c,0x7f,0x00,0x84,0x43,0x7f,0x81,0x2d,0x94,0x3c,0x3c,0x00,
0x94,0x43,0x3d,0x49,0x84,0x43,0x2d,0x05,0x84,0x3c,0x25,0x83,0x12,0x94,0x3a,0x3c,
0x00,0x94,0x41,0x46,0x81,0x0f,0x84,0x3a,0x47,0x12,0x84,0x41,0x46,0x82,0x3f,0x94,
0x3a,0x44,0x00,0x94,0x41,0x41,0x46,0x84,0x3a,0x1c,0x0d,0x84,0x41,0x18,0x81,0x1d,
0x94,0x3a,0x43,0x00,0x94,0x41,0x48,0x41,0x84,0x3a,0x79,0x56,0x84,0x41,0x59,0x82,
0x49,0x94,0x3a,0x3d,0x00,0x94,0x41,0x43,0x3e,0x84,0x3a,0x79,0x03,0x84,0x41,0x35,
0x81,0x2f,0x94,0x3a,0x48,0x00,0x94,0x41,0x40,0x3e,0x84,0x41,0x7f,0x0b,0x84,0x3a,
0x17,0x83,0x17,0x94,0x37,0x44,0x00,0x94,0x3e,0x3f,0x81,0x07,0x84,0x37,0x5f,0x00,
0x84,0x3e,0x5b,0x82,0x59,0x94,0x37,0x45,0x00,0x94,0x3e,0x40,0x3e,0x84,0x3e,0x7f,
0x06,0x84,0x37,0x3c,0x81,0x2c,0x94,0x37,0x4d,0x00,0x94,0x3e,0x43,0x4b,0x84,0x3e,
0x24,0x1a,0x84,0x37,0x0c,0x82,0x7b,0x94,0x37,0x4c,0x00,0x94,0x3e,0x46,0x39,0x84,
0x37,0x7f,0x08,0x84,0x3e,0x7f,0x81,0x2f,0x94,0x37,0x35,0x00,0x94,0x3e,0x1b,0x44,
0x84,0x37,0x66,0x02,0x84,0x3e,0x1b,0x83,0x1a,0x94,0x37,0x51,0x00,0x94,0x3e,0x50,
0x70,0x84,0x37,0x09,0x1f,0x84,0x3e,0x48,0x8d,0x71,0x94,0x33,0x48,0x81,0x70,0x94,
0x3a,0x3f,0x3d,0x84,0x33,0x01,0x32,0x84,0x3a,0x06,0x81,0x01,0x94,0x3f,0x3e,0x81,
0x0a,0x84,0x3f,0x32,0x66,0x94,0x33,0x45,0x81,0x70,0x94,0x3a,0x3a,0x48,0x84,0x3a,
0x1d,0x09,0x84,0x33,0x14,0x81,0x1f,0x94,0x3f,0x3e,0x81,0x23,0x84,0x3f,0x24,0x4d,
0x94,0x3a,0x38,0x60,0x84,0x3a,0x0b,0x81,0x10,0x94,0x3f,0x3c,0x44,0x84,0x3f,0x22,
0x81,0x2c,0x94,0x2e,0x39,0x81,0x76,0x94,0x35,0x34,0x46,0x84,0x2e,0x3a,0x00,0x84,
0x35,0x3c,0x81,0x24,0x94,0x3a,0x3f,0x81,0x23,0x84,0x3a,0x3c,0x4c,0x94,0x2e,0x34,
0x81,0x4f,0x84,0x2e,0x24,0x22,0x94,0x35,0x43,0x72,0x84,0x35,0x09,0x77,0x94,0x3a,
0x44,0x81,0x0f,0x84,0x3a,0x2a,0x6f,0x94,0x35,0x43,0x81,0x0c,0x84,0x35,0x37,0x6c,
0x94,0x3a,0x3e,0x70,0x84,0x3a,0x09,0x6c,0x94,0x30,0x3e,0x70,0x84,0x30,0x40,0x81,
0x06,0x94,0x37,0x3e,0x70,0x84,0x37,0x40,0x81,0x01,0x94,0x3c,0x3e,0x70,0x84,0x3c,
0x40,0x81,0x00,0x94,0x30,0x3e,0x70,0x84,0x30,0x40,0x81,0x00,0x94,0x37,0x36,0x81,
0x48,0x84,0x37,0x58,0x28,0x94,0x3c,0x45,0x81,0x0f,0x84,0x3c,0x46,0x62,0x94,0x37,
0x55,0x81,0x11,0x84,0x37,0x53,0x58,0x94,0x3c,0x40,0x81,0x19,0x84,0x3c,0x4a,0x51,
0x94,0x30,0x48,0x81,0x57,0x84,0x30,0x4b,0x23,0x94,0x37,0x49,0x81,0x61,0x84,0x37,
0x05,0x0f,0x94,0x3c,0x4a,0x81,0x24,0x84,0x3c,0x57,0x4c,0x94,0x30,0x3a,0x81,0x70,
0x94,0x37,0x42,0x19,0x84,0x30,0x40,0x81,0x57,0x94,0x3c,0x44,0x13,0x84,0x37,0x32,
0x81,0x37,0x84,0x3c,0x30,0x26,0x94,0x37,0x44,0x81,0x57,0x84,0x37,0x49,0x19,0x94,
0x3c,0x36,0x81,0x0c,0x84,0x3c,0x53,0x64,0x94,0x33,0x44,0x81,0x70,0x94,0x3a,0x36,
0x42,0x84,0x33,0x29,0x81,0x2e,0x94,0x3f,0x41,0x2a,0x84,0x3a,0x27,0x7a,0x84,0x3f,
0x34,0x4c,0x94,0x33,0x39,0x81,0x70,0x94,0x3a,0x38,0x25,0x84,0x33,0x2f,0x81,0x41,
0x84,0x3a,0x01,0x0a,0x94,0x3f,0x3d,0x81,0x4b,0x84,0x3f,0x2e,0x25,0x94,0x3a,0x34,
0x81,0x70,0x94,0x3f,0x40,0x0c,0x84,0x3a,0x2a,0x6c,0x84,0x3f,0x43,0x78,0x94,0x2e,
0x4b,0x81,0x70,0x94,0x35,0x2d,0x54,0x84,0x2e,0x30,0x81,0x10,0x84,0x35,0x3d,0x0c,
0x94,0x3a,0x3f,0x81,0x43,0x84,0x3a,0x3b,0x2d,0x94,0x2e,0x49,0x81,0x70,0x94,0x35,
0x36,0x2b,0x84,0x2e,0x2d,0x81,0x45,0x94,0x3a,0x3e,0x09,0x84,0x35,0x46,0x81,0x42,
0x84,0x3a,0x3a,0x25,0x94,0x35,0x2e,0x81,0x70,0x94,0x3a,0x3b,0x19,0x84,0x35,0x4f,
0x81,0x0d,0x84,0x3a,0x3e,0x4a,0x94,0x2d,0x46,0x81,0x1d,0x84,0x2d,0x42,0x53,0x94,
0x34,0x40,0x81,0x43,0x84,0x34,0x3e,0x2d,0x94,0x39,0x3a,0x81,0x62,0x84,0x39,0x41,
0x0e,0x94,0x2d,0x40,0x81,0x39,0x84,0x2d,0x3f,0x37,0x94,0x34,0x37,0x81,0x70,0x94,
0x39,0x3b,0x1b,0x84,0x34,0x4e,0x81,0x3f,0x84,0x39,0x55,0x16,0x94,0x34,0x45,0x81,
0x17,0x84,0x34,0x01,0x59,0x94,0x39,0x33,0x81,0x3d,0x84,0x39,0x1a,0x33,0x94,0x2d,
0x42,0x81,0x70,0x94,0x34,0x37,0x69,0x84,0x2d,0x36,0x81,0x07,0x94,0x39,0x43,0x0c,
0x84,0x34,0x38,0x81,0x3c,0x84,0x39,0x46,0x29,0x94,0x3d,0x37,0x81,0x6f,0x94,0x40,
0x53,0x02,0x84,0x3d,0x49,0x85,0x30,0xff,0x2f,0x00,0x00,0x84,0x40,0x55,0x4d,0x54,
0x72,0x6b,0x00,0x00,0x08,0xee,0x00,0xb5,0x46,0x02,0x00,0xb5,0x07,0x32,0x00,0x95,
0x45,0x4b,0x81,0x30,0x85,0x45,0x2f,0x3d,0x95,0x46,0x3d,0x81,0x70,0x95,0x45,0x44,
0x13,0x85,0x46,0x3a,0x29,0x85,0x45,0x7f,0x81,0x34,0x95,0x44,0x39,0x44,0x85,0x44,
0x29,0x81,0x2c,0x95,0x45,0x4b,0x44,0x85,0x45,0x27,0x81,0x2c,0x95,0x46,0x3e,0x81,
0x29,0x85,0x46,0x2f,0x47,0x95,0x45,0x37,0x46,0x85,0x45,0x47,0x81,0x2a,0x95,0x44,
0x47,0x60,0x85,0x44,0x09,0x81,0x10,0x95,0x45,0x51,0x83,0x4a,0x85,0x45,0x58,0x16,
0x95,0x3e,0x4b,0x84,0x76,0x85,0x3e,0x59,0xa2,0x0f,0xe5,0x00,0x3c,0x07,0xe5,0x5f,
0x34,0x17,0xe5,0x57,0x18,0x00,0xe5,0x00,0x18,0x55,0xe5,0x24,0x00,0x45,0xe5,0x31,
0x00,0x34,0xe5,0x5c,0x00,0x2f,0x95,0x45,0x3f,0x04,0xe5,0x00,0x10,0x3e,0xe5,0x7b,
0x3c,0x27,0xe5,0x00,0x40,0x81,0x07,0x95,0x46,0x44,0x5c,0x85,0x45,0x51,0x4a,0x85,
0x46,0x31,0x4a,0x95,0x45,0x38,0x6d,0x85,0x45,0x0c,0x81,0x03,0x95,0x44,0x3f,0x72,
0x85,0x44,0x05,0x7e,0x95,0x45,0x48,0x81,0x70,0x95,0x46,0x3f,0x13,0x85,0x45,0x4d,
0x81,0x5d,0x95,0x45,0x45,0x0c,0x85,0x46,0x37,0x81,0x62,0x85,0x45,0x01,0x02,0x95,
0x44,0x3e,0x81,0x70,0x95,0x45,0x51,0x11,0x85,0x44,0x37,0x76,0x85,0x45,0x50,0x76,
0xe5,0x00,0x40,0x00,0xe5,0x00,0x36,0x2e,0xe5,0x1d,0x07,0x00,0xe5,0x00,0x07,0x2f,
0xe5,0x05,0x01,0x00,0xe5,0x00,0x01,0x36,0xe5,0x7b,0x00,0x37,0xe5,0x60,0x05,0x01,
0xe5,0x00,0x06,0x18,0x95,0x4a,0x4b,0x16,0xe5,0x00,0x2f,0x37,0xe5,0x40,0x3e,0x27,
0xe5,0x00,0x40,0x8a,0x2c,0x95,0x4b,0x4f,0x45,0x85,0x4a,0x54,0x85,0x0b,0x95,0x48,
0x47,0x13,0x85,0x4b,0x3f,0x89,0x1d,0x95,0x4a,0x48,0x10,0x85,0x48,0x59,0x85,0x40,
0x95,0x46,0x4a,0x32,0x85,0x4a,0x55,0x88,0x4a,0x85,0x46,0x48,0x9e,0x34,0x95,0x4b,
0x53,0x85,0x50,0x95,0x48,0x4a,0x2f,0x85,0x4b,0x3d,0x88,0x7c,0x85,0x48,0x5b,0x05,
0x95,0x4a,0x51,0x85,0x50,0x95,0x46,0x4d,0x06,0x85,0x4a,0x58,0x89,0x2a,0x95,0x47,
0x40,0x1f,0x85,0x46,0x2e,0x85,0x06,0x85,0x47,0x4a,0x2b,0x95,0x48,0x47,0x85,0x50,
0x95,0x4a,0x47,0x1a,0x85,0x48,0x54,0x83,0x46,0x95,0x4f,0x49,0x26,0x85,0x4a,0x59,
0x87,0x07,0x85,0x4f,0x5c,0x87,0x15,0xe5,0x00,0x40,0x00,0xe5,0x00,0x3c,0x08,0xe5,
0x3e,0x2d,0x07,0xe5,0x7c,0x1e,0x00,0xe5,0x00,0x1e,0x08,0xe5,0x5f,0x16,0x08,0xe5,
0x3e,0x0f,0x00,0xe5,0x00,0x0f,0x08,0xe5,0x20,0x0b,0x07,0xe5,0x40,0x07,0x01,0xe5,
0x00,0x07,0x08,0xe5,0x40,0x05,0x07,0xe5,0x00,0x04,0x08,0xe5,0x08,0x03,0x02,0x95,
0x45,0x53,0x05,0xe5,0x10,0x02,0x01,0xe5,0x00,0x02,0x08,0xe5,0x40,0x01,0x07,0xe5,
0x00,0x01,0x08,0xe5,0x43,0x00,0x07,0xe5,0x05,0x00,0x00,0xe5,0x00,0x00,0x08,0xe5,
0x4f,0x07,0x08,0xe5,0x1e,0x0f,0x07,0xe5,0x6d,0x16,0x08,0xe5,0x3c,0x1e,0x01,0xe5,
0x00,0x20,0x08,0xe5,0x5e,0x27,0x07,0xe5,0x3d,0x2f,0x00,0xe5,0x00,0x30,0x08,0xe5,
0x6f,0x33,0x08,0xe5,0x5e,0x37,0x00,0xe5,0x00,0x38,0x08,0xe5,0x77,0x39,0x07,0xe5,
0x6f,0x3b,0x00,0xe5,0x00,0x3c,0x08,0xe5,0x7b,0x3c,0x08,0xe5,0x77,0x3d,0x00,0xe5,
0x00,0x3e,0x08,0xe5,0x3d,0x3e,0x07,0xe5,0x7b,0x3e,0x00,0xe5,0x00,0x3f,0x08,0xe5,
0x3d,0x3f,0x08,0xe5,0x00,0x40,0x4f,0x95,0x46,0x49,0x09,0x85,0x45,0x58,0x81,0x1d,
0x85,0x46,0x48,0x40,0x95,0x45,0x45,0x81,0x70,0x95,0x44,0x46,0x16,0x85,0x45,0x54,
0x81,0x5a,0x95,0x45,0x3f,0x2d,0x85,0x44,0x3d,0x81,0x43,0x95,0x46,0x44,0x23,0x85,
0x45,0x54,0x81,0x15,0x85,0x46,0x18,0x38,0x95,0x45,0x2f,0x81,0x70,0x95,0x44,0x3f,
0x16,0x85,0x45,0x55,0x81,0x56,0x85,0x44,0x36,0x04,0x95,0x45,0x3f,0x81,0x6f,0x85,
0x45,0x51,0x81,0x71,0x95,0x3e,0x49,0x87,0x49,0x85,0x3e,0x5c,0xa1,0x57,0x95,0x45,
0x4a,0x81,0x60,0x85,0x45,0x47,0x10,0x95,0x46,0x44,0x81,0x70,0x95,0x45,0x48,0x04,
0x85,0x46,0x34,0x81,0x59,0x85,0x45,0x47,0x13,0x95,0x44,0x3d,0x81,0x70,0x95,0x45,
0x43,0x30,0x85,0x44,0x25,0x81,0x40,0x95,0x46,0x40,0x2b,0x85,0x45,0x50,0x81,0x45,
0x95,0x45,0x3b,0x13,0x85,0x46,0x2e,0x81,0x4a,0x85,0x45,0x50,0x13,0x95,0x44,0x38,
0x81,0x70,0x95,0x45,0x52,0x23,0x85,0x44,0x35,0x59,0x85,0x45,0x62,0x82,0x64,0x95,
0x4a,0x51,0x88,0x46,0x85,0x4a,0x56,0x82,0x5a,0x95,0x4b,0x56,0x81,0x63,0xe5,0x00,
0x40,0x07,0xe5,0x32,0x3a,0x08,0xe5,0x64,0x34,0x07,0xe5,0x16,0x2f,0x08,0xe5,0x48,
0x29,0x07,0xe5,0x7a,0x23,0x08,0xe5,0x2c,0x1e,0x07,0xe5,0x5e,0x18,0x08,0xe5,0x10,
0x13,0x02,0xe5,0x00,0x12,0x07,0xe5,0x50,0x10,0x08,0xe5,0x20,0x0f,0x07,0xe5,0x70,
0x0d,0x08,0xe5,0x3f,0x0c,0x07,0xe5,0x0f,0x0b,0x08,0xe5,0x5f,0x09,0x04,0xe5,0x00,
0x09,0x07,0xe5,0x28,0x07,0x08,0xe5,0x4f,0x05,0x07,0xe5,0x76,0x03,0x08,0xe5,0x1d,
0x02,0x01,0xe5,0x00,0x02,0x07,0xe5,0x2a,0x05,0x08,0xe5,0x55,0x08,0x07,0xe5,0x00,
0x0c,0x08,0xe5,0x2a,0x0f,0x07,0xe5,0x55,0x12,0x08,0xe5,0x00,0x16,0x07,0xe5,0x2a,
0x19,0x08,0xe5,0x55,0x1c,0x07,0xe5,0x00,0x20,0x08,0xe5,0x2a,0x23,0x07,0xe5,0x55,
0x26,0x08,0xe5,0x00,0x2a,0x07,0xe5,0x2a,0x2d,0x08,0xe5,0x55,0x30,0x07,0xe5,0x00,
0x34,0x08,0xe5,0x2a,0x37,0x02,0xe5,0x00,0x38,0x07,0xe5,0x6f,0x38,0x08,0xe5,0x5f,
0x39,0x07,0xe5,0x4f,0x3a,0x08,0xe5,0x3f,0x3b,0x07,0xe5,0x2f,0x3c,0x08,0xe5,0x1f,
0x3d,0x06,0xe5,0x00,0x3e,0x08,0xe5,0x0b,0x3e,0x07,0xe5,0x17,0x3e,0x08,0xe5,0x23,
0x3e,0x07,0xe5,0x2e,0x3e,0x08,0xe5,0x3a,0x3e,0x07,0xe5,0x46,0x3e,0x08,0xe5,0x51,
0x3e,0x07,0xe5,0x5d,0x3e,0x08,0xe5,0x69,0x3e,0x07,0xe5,0x75,0x3e,0x08,0xe5,0x00,
0x3f,0x07,0xe5,0x3d,0x3f,0x08,0xe5,0x00,0x40,0x4e,0x95,0x48,0x56,0x72,0x85,0x4b,
0x3b,0x88,0x40,0x95,0x4a,0x58,0x5e,0x85,0x48,0x58,0x81,0x16,0xe5,0x00,0x40,0x00,
0xe5,0x00,0x3a,0x08,0xe5,0x7c,0x2b,0x07,0xe5,0x78,0x1d,0x00,0xe5,0x00,0x1d,0x08,
0xe5,0x5f,0x15,0x08,0xe5,0x3e,0x0e,0x00,0xe5,0x00,0x0e,0x08,0xe5,0x4f,0x0a,0x07,
0xe5,0x1d,0x07,0x00,0xe5,0x00,0x07,0x08,0xe5,0x47,0x05,0x08,0xe5,0x0d,0x04,0x00,
0xe5,0x00,0x04,0x08,0xe5,0x05,0x03,0x07,0xe5,0x09,0x02,0x00,0xe5,0x00,0x02,0x08,
0xe5,0x43,0x01,0x08,0xe5,0x05,0x01,0x00,0xe5,0x00,0x01,0x08,0xe5,0x43,0x00,0x07,
0xe5,0x05,0x00,0x00,0xe5,0x00,0x00,0x08,0xe5,0x7a,0x00,0x08,0xe5,0x75,0x01,0x07,
0xe5,0x70,0x02,0x08,0xe5,0x6b,0x03,0x07,0xe5,0x66,0x04,0x08,0xe5,0x61,0x05,0x07,
0xe5,0x5c,0x06,0x08,0xe5,0x57,0x07,0x02,0xe5,0x00,0x08,0x08,0xe5,0x46,0x15,0x07,
0xe5,0x0c,0x23,0x00,0xe5,0x00,0x24,0x08,0xe5,0x63,0x2a,0x08,0xe5,0x46,0x31,0x00,
0xe5,0x00,0x32,0x08,0xe5,0x31,0x35,0x07,0xe5,0x63,0x38,0x00,0xe5,0x00,0x39,0x08,
0xe5,0x77,0x3a,0x08,0xe5,0x6f,0x3c,0x00,0xe5,0x00,0x3d,0x08,0xe5,0x3d,0x3d,0x07,
0xe5,0x7b,0x3d,0x00,0xe5,0x00,0x3e,0x08,0xe5,0x3d,0x3e,0x08,0xe5,0x7b,0x3e,0x00,
0xe5,0x00,0x3f,0x08,0xe5,0x3d,0x3f,0x07,0xe5,0x00,0x40,0x81,0x39,0x85,0x4a,0x58,
0x0c,0x95,0x46,0x4d,0x85,0x75,0x85,0x46,0x43,0x83,0x3b,0x95,0x46,0x51,0x85,0x4b,
0x85,0x46,0x40,0x05,0x95,0x45,0x50,0x85,0x49,0x85,0x45,0x54,0x07,0x95,0x43,0x4d,
0x83,0x60,0x95,0x3e,0x49,0x12,0x85,0x43,0x53,0x8a,0x56,0x85,0x3e,0x5e,0x84,0x18,
0x95,0x4b,0x51,0x81,0x5d,0xe5,0x00,0x40,0x00,0xe5,0x00,0x20,0x08,0xe5,0x40,0x18,
0x08,0xe5,0x00,0x11,0x01,0xe5,0x00,0x10,0x07,0xe5,0x00,0x0c,0x08,0xe5,0x00,0x08,
0x07,0xe5,0x09,0x06,0x08,0xe5,0x11,0x04,0x00,0xe5,0x00,0x04,0x08,0xe5,0x08,0x03,
0x07,0xe5,0x10,0x02,0x01,0xe5,0x00,0x02,0x08,0xe5,0x43,0x01,0x07,0xe5,0x05,0x01,
0x00,0xe5,0x00,0x01,0x08,0xe5,0x62,0x00,0x08,0xe5,0x43,0x00,0x07,0xe5,0x24,0x00,
0x08,0xe5,0x05,0x00,0x01,0xe5,0x00,0x00,0x07,0xe5,0x3d,0x00,0x08,0xe5,0x7b,0x00,
0x07,0xe5,0x38,0x01,0x08,0xe5,0x76,0x01,0x07,0xe5,0x34,0x02,0x08,0xe5,0x71,0x02,
0x07,0xe5,0x2f,0x03,0x08,0xe5,0x6c,0x03,0x07,0xe5,0x2a,0x04,0x08,0xe5,0x68,0x04,
0x07,0xe5,0x25,0x05,0x08,0xe5,0x63,0x05,0x03,0xe5,0x00,0x06,0x08,0xe5,0x40,0x14,
0x07,0xe5,0x00,0x23,0x08,0xe5,0x21,0x2a,0x07,0xe5,0x42,0x31,0x00,0xe5,0x00,0x32,
0x08,0xe5,0x24,0x35,0x08,0xe5,0x48,0x38,0x01,0xe5,0x00,0x39,0x07,0xe5,0x39,0x3a,
0x08,0xe5,0x73,0x3b,0x00,0xe5,0x00,0x3c,0x08,0xe5,0x7b,0x3c,0x07,0xe5,0x77,0x3d,
0x00,0xe5,0x00,0x3e,0x08,0xe5,0x3d,0x3e,0x08,0xe5,0x7b,0x3e,0x00,0xe5,0x00,0x3f,
0x08,0xe5,0x3d,0x3f,0x07,0xe5,0x00,0x40,0x81,0x1d,0x85,0x4b,0x2d,0x1f,0x95,0x48,
0x4b,0x89,0x30,0x95,0x4a,0x52,0x39,0x85,0x48,0x58,0x81,0x1d,0xe5,0x00,0x40,0x00,
0xe5,0x00,0x3c,0x08,0xe5,0x78,0x2d,0x07,0xe5,0x70,0x1f,0x01,0xe5,0x00,0x1e,0x08,
0xe5,0x5f,0x16,0x07,0xe5,0x3e,0x0f,0x00,0xe5,0x00,0x0f,0x08,0xe5,0x11,0x0b,0x08,
0xe5,0x22,0x07,0x00,0xe5,0x00,0x07,0x08,0xe5,0x47,0x05,0x07,0xe5,0x0d,0x04,0x00,
0xe5,0x00,0x04,0x08,0xe5,0x05,0x03,0x08,0xe5,0x09,0x02,0x00,0xe5,0x00,0x02,0x08,
0xe5,0x43,0x01,0x07,0xe5,0x05,0x01,0x00,0xe5,0x00,0x01,0x08,0xe5,0x43,0x00,0x08,
0xe5,0x05,0x00,0x00,0xe5,0x00,0x00,0x08,0xe5,0x70,0x00,0x07,0xe5,0x61,0x01,0x08,
0xe5,0x52,0x02,0x07,0xe5,0x43,0x03,0x08,0xe5,0x34,0x04,0x07,0xe5,0x25,0x05,0x08,
0xe5,0x16,0x06,0x07,0xe5,0x07,0x07,0x08,0xe5,0x78,0x07,0x07,0xe5,0x69,0x08,0x08,
0xe5,0x5a,0x09,0x07,0xe5,0x4b,0x0a,0x04,0xe5,0x00,0x0b,0x07,0xe5,0x4a,0x17,0x08,
0xe5,0x14,0x24,0x00,0xe5,0x00,0x25,0x08,0xe5,0x63,0x2b,0x07,0xe5,0x46,0x32,0x00,
0xe5,0x00,0x33,0x08,0xe5,0x73,0x35,0x08,0xe5,0x67,0x38,0x00,0xe5,0x00,0x39,0x08,
0xe5,0x77,0x3a,0x07,0xe5,0x6f,0x3c,0x00,0xe5,0x00,0x3d,0x08,0xe5,0x3d,0x3d,0x08,
0xe5,0x7b,0x3d,0x00,0xe5,0x00,0x3e,0x08,0xe5,0x3d,0x3e,0x07,0xe5,0x7b,0x3e,0x00,
0xe5,0x00,0x3f,0x08,0xe5,0x3c,0x3f,0x08,0xe5,0x78,0x3f,0x01,0xe5,0x00,0x40,0x81,
0x42,0x95,0x46,0x4a,0x13,0x85,0x4a,0x4e,0x86,0x2d,0x85,0x46,0x3a,0x82,0x70,0x95,
0x47,0x5d,0x85,0x50,0x95,0x48,0x56,0x18,0x85,0x47,0x52,0x85,0x38,0x95,0x4a,0x56,
0x1a,0x85,0x48,0x59,0x83,0x46,0x95,0x4f,0x54,0x05,0x85,0x4a,0x59,0x84,0x09,0x85,
0x4f,0x59,0x83,0x32,0x95,0x4f,0x49,0x83,0x46,0x85,0x4f,0x46,0x83,0x7a,0x95,0x43,
0x64,0x00,0x95,0x4f,0x5e,0x83,0x3b,0x85,0x43,0x59,0x0a,0x85,0x4f,0x5d,0x82,0x0b,
0x95,0x3f,0x58,0x00,0x95,0x4b,0x4f,0x85,0x53,0x85,0x4b,0x3e,0x08,0x85,0x3f,0x3a,
0x83,0x55,0x95,0x41,0x55,0x00,0x95,0x4d,0x55,0x83,0x43,0x85,0x4d,0x53,0x08,0x85,
0x41,0x53,0x82,0x05,0x95,0x3e,0x4a,0x00,0x95,0x4a,0x50,0x85,0x6a,0x85,0x3e,0x56,
0x13,0x85,0x4a,0x5b,0x83,0x33,0x95,0x3f,0x49,0x00,0x95,0x4b,0x4d,0x82,0x6e,0x85,
0x4b,0x27,0x0a,0x85,0x3f,0x1d,0x82,0x5b,0x95,0x3e,0x43,0x00,0x95,0x4a,0x4c,0x83,
0x33,0x85,0x4a,0x52,0x12,0x85,0x3e,0x3e,0x82,0x0b,0x95,0x3c,0x3c,0x00,0x95,0x48,
0x4b,0x81,0x3a,0x85,0x48,0x52,0x15,0x85,0x3c,0x55,0x82,0x0e,0x95,0x37,0x4a,0x00,
0x95,0x43,0x4e,0x88,0x36,0x85,0x37,0x5b,0x34,0x85,0x43,0x57,0x86,0x16,0x95,0x43,
0x50,0x00,0x95,0x4f,0x4a,0x83,0x1f,0x85,0x43,0x4e,0x1c,0x85,0x4f,0x59,0x82,0x15,
0x95,0x3f,0x4b,0x00,0x95,0x4b,0x46,0x85,0x53,0x85,0x3f,0x37,0x08,0x85,0x4b,0x37,
0x83,0x55,0x95,0x41,0x4e,0x00,0x95,0x4d,0x4f,0x83,0x50,0x85,0x41,0x51,0x0d,0x85,
0x4d,0x54,0x81,0x73,0x95,0x3e,0x45,0x00,0x95,0x4a,0x49,0x85,0x68,0x85,0x3e,0x53,
0x05,0x85,0x4a,0x58,0x83,0x43,0x95,0x3d,0x48,0x00,0x95,0x49,0x4e,0x81,0x61,0xe5,
0x00,0x40,0x00,0xe5,0x00,0x3c,0x08,0xe5,0x36,0x2f,0x08,0xe5,0x6c,0x22,0x00,0xe5,
0x00,0x22,0x08,0xe5,0x64,0x19,0x07,0xe5,0x47,0x11,0x00,0xe5,0x00,0x11,0x08,0xe5,
0x53,0x0c,0x08,0xe5,0x26,0x08,0x00,0xe5,0x00,0x08,0x08,0xe5,0x10,0x06,0x07,0xe5,
0x20,0x04,0x01,0xe5,0x00,0x04,0x08,0xe5,0x00,0x03,0x07,0xe5,0x00,0x02,0x08,0xe5,
0x43,0x01,0x07,0xe5,0x05,0x01,0x00,0xe5,0x00,0x01,0x08,0xe5,0x62,0x00,0x08,0xe5,
0x44,0x00,0x07,0xe5,0x25,0x00,0x08,0xe5,0x07,0x00,0x01,0xe5,0x00,0x00,0x08,0xe5,
0x46,0x01,0x07,0xe5,0x0c,0x03,0x08,0xe5,0x52,0x04,0x07,0xe5,0x18,0x06,0x08,0xe5,
0x5e,0x07,0x07,0xe5,0x25,0x09,0x08,0xe5,0x6b,0x0a,0x07,0xe5,0x31,0x0c,0x08,0xe5,
0x77,0x0d,0x07,0xe5,0x3d,0x0f,0x03,0xe5,0x00,0x10,0x07,0xe5,0x4e,0x1b,0x08,0xe5,
0x1c,0x27,0x00,0xe5,0x00,0x28,0x08,0xe5,0x67,0x2d,0x07,0xe5,0x4e,0x33,0x00,0xe5,
0x00,0x34,0x08,0xe5,0x68,0x36,0x08,0xe5,0x50,0x39,0x01,0xe5,0x00,0x3a,0x07,0xe5,
0x40,0x3b,0x08,0xe5,0x00,0x3d,0x07,0xe5,0x78,0x3d,0x08,0xe5,0x70,0x3e,0x01,0xe5,
0x00,0x3f,0x07,0xe5,0x1e,0x3f,0x08,0xe5,0x3d,0x3f,0x07,0xe5,0x5c,0x3f,0x09,0xe5,
0x00,0x40,0x02,0x85,0x3d,0x10,0x22,0x85,0x49,0x3f,0x81,0x11,0x95,0x3e,0x51,0x00,
0x95,0x4a,0x51,0x82,0x63,0x85,0x4a,0x58,0x0a,0x85,0x3e,0x4d,0x82,0x65,0x95,0x40,
0x4a,0x00,0x95,0x4c,0x51,0x81,0x57,0x85,0x40,0x4f,0x25,0x85,0x4c,0x4e,0x81,0x64,
0x95,0x45,0x61,0x00,0x95,0x51,0x5b,0x8b,0x2e,0x85,0x51,0x58,0x05,0xff,0x2f,0x00,
0x00,0x85,0x45,0x59,0x4d,0x54,0x72,0x6b,0x00,0x00,0x06,0x5f,0x00,0xb6,0x46,0x02,
0x00,0xb6,0x07,0x32,0x9d,0x7d,0xff,0x20,0x01,0x00,0x00,0xff,0x03,0x14,0x53,0x74,
0x65,0x69,0x6e,0x77,0x61,0x79,0x20,0x47,0x72,0x61,0x6e,0x64,0x20,0x50,0x69,0x61,
0x6e,0x6f,0x00,0xff,0x04,0x14,0x53,0x74,0x65,0x69,0x6e,0x77,0x61,0x79,0x20,0x47,
0x72,0x61,0x6e,0x64,0x20,0x50,0x69,0x61,0x6e,0x6f,0x00,0x96,0x45,0x58,0x81,0x57,
0x86,0x45,0x2e,0x19,0x96,0x46,0x4b,0x81,0x70,0x96,0x45,0x3f,0x47,0x86,0x46,0x31,
0x81,0x29,0x96,0x44,0x43,0x19,0x86,0x45,0x51,0x81,0x57,0x96,0x45,0x42,0x0b,0x86,
0x44,0x31,0x81,0x65,0x96,0x46,0x46,0x09,0x86,0x45,0x4c,0x81,0x67,0x96,0x44,0x47,
0x35,0x86,0x46,0x35,0x81,0x2a,0x86,0x44,0x28,0x11,0x96,0x43,0x4c,0x75,0x86,0x43,
0x08,0x7b,0x96,0x42,0x4b,0x81,0x28,0x86,0x42,0x12,0x48,0x96,0x41,0x49,0x81,0x70,
0x96,0x40,0x46,0x04,0x86,0x41,0x01,0x81,0x65,0x86,0x40,0x3c,0x07,0x96,0x3f,0x43,
0x81,0x30,0x86,0x3f,0x1b,0x40,0x96,0x3e,0x57,0x87,0x04,0x86,0x3e,0x5d,0x9e,0x3c,
0x96,0x4b,0x51,0x6a,0x86,0x4b,0x4d,0x81,0x06,0x96,0x4b,0x3d,0x50,0x86,0x4b,0x0e,
0x81,0x20,0x96,0x4b,0x47,0x46,0x86,0x4b,0x15,0x81,0x2a,0x96,0x48,0x50,0x43,0x86,
0x48,0x23,0x81,0x2d,0x96,0x48,0x4d,0x3c,0x86,0x48,0x7f,0x81,0x34,0x96,0x48,0x43,
0x4b,0x86,0x48,0x1f,0x81,0x25,0x96,0x48,0x4e,0x37,0x86,0x48,0x7f,0x81,0x39,0x96,
0x48,0x3e,0x41,0x86,0x48,0x2f,0x81,0x2f,0x96,0x4a,0x51,0x5a,0x86,0x4a,0x0d,0x81,
0x16,0x96,0x4a,0x44,0x46,0x86,0x4a,0x25,0x81,0x2a,0x96,0x4a,0x44,0x3e,0x86,0x4a,
0x7f,0x81,0x32,0x96,0x46,0x4f,0x41,0x86,0x46,0x79,0x81,0x2f,0x96,0x46,0x4a,0x31,
0x86,0x46,0x79,0x81,0x3f,0x96,0x46,0x4f,0x29,0x86,0x46,0x79,0x81,0x47,0x96,0x46,
0x4b,0x46,0x86,0x46,0x17,0x81,0x2a,0x96,0x46,0x44,0x39,0x86,0x46,0x79,0x81,0x37,
0x96,0x46,0x46,0x34,0x86,0x46,0x79,0x81,0x3c,0x96,0x46,0x40,0x37,0x86,0x46,0x79,
0x81,0x39,0x96,0x46,0x49,0x3b,0x86,0x46,0x79,0x81,0x35,0x96,0x45,0x4a,0x3c,0x86,
0x45,0x7f,0x81,0x34,0x96,0x45,0x4d,0x37,0x86,0x45,0x7f,0x81,0x39,0x96,0x45,0x40,
0x49,0x86,0x45,0x23,0x81,0x27,0x96,0x43,0x49,0x4b,0x86,0x43,0x22,0x81,0x25,0x96,
0x43,0x46,0x7a,0x86,0x43,0x4f,0x76,0x96,0x3e,0x50,0x46,0x86,0x3e,0x22,0x81,0x2a,
0x96,0x3e,0x3c,0x7a,0x86,0x3e,0x5c,0x76,0x96,0x3e,0x38,0x81,0x04,0x86,0x3e,0x53,
0x6c,0x96,0x3e,0x3e,0x7c,0x86,0x3e,0x5a,0x74,0x96,0x3e,0x3d,0x81,0x05,0x86,0x3e,
0x58,0x6b,0x96,0x3e,0x38,0x75,0x86,0x3e,0x2b,0x7b,0x96,0x3e,0x3a,0x81,0x02,0x86,
0x3e,0x49,0x6e,0x96,0x3e,0x39,0x81,0x0a,0x86,0x3e,0x4d,0x66,0x96,0x4b,0x3f,0x78,
0x86,0x4b,0x46,0x78,0x96,0x4b,0x42,0x4e,0x86,0x4b,0x10,0x81,0x22,0x96,0x4b,0x46,
0x60,0x86,0x4b,0x08,0x81,0x10,0x96,0x48,0x4e,0x43,0x86,0x48,0x7f,0x81,0x2d,0x96,
0x48,0x49,0x4e,0x86,0x48,0x19,0x81,0x22,0x96,0x48,0x44,0x41,0x86,0x48,0x2e,0x81,
0x2f,0x96,0x48,0x44,0x39,0x86,0x48,0x7f,0x81,0x37,0x96,0x48,0x3a,0x41,0x86,0x48,
0x33,0x81,0x2f,0x96,0x4a,0x4c,0x49,0x86,0x4a,0x1d,0x81,0x27,0x96,0x4a,0x43,0x44,
0x86,0x4a,0x2a,0x81,0x2c,0x96,0x4a,0x3f,0x44,0x86,0x4a,0x7f,0x81,0x2c,0x96,0x46,
0x4b,0x3e,0x86,0x46,0x79,0x81,0x32,0x96,0x46,0x4b,0x44,0x86,0x46,0x1a,0x81,0x2c,
0x96,0x46,0x48,0x32,0x86,0x46,0x79,0x81,0x3e,0x96,0x46,0x47,0x34,0x86,0x46,0x79,
0x81,0x3c,0x96,0x46,0x49,0x34,0x86,0x46,0x79,0x81,0x3c,0x96,0x47,0x46,0x51,0x86,
0x47,0x1b,0x81,0x1f,0x96,0x47,0x3b,0x4b,0x86,0x47,0x32,0x81,0x25,0x96,0x47,0x3f,
0x65,0x86,0x47,0x0e,0x81,0x0b,0x96,0x48,0x4a,0x3c,0x86,0x48,0x7f,0x81,0x34,0x96,
0x48,0x44,0x49,0x86,0x48,0x22,0x81,0x27,0x96,0x48,0x41,0x60,0x86,0x48,0x0e,0x81,
0x10,0x96,0x4a,0x4e,0x3c,0x86,0x4a,0x7f,0x81,0x34,0x96,0x4a,0x4e,0x34,0x86,0x4a,
0x7f,0x81,0x3c,0x96,0x4f,0x52,0x78,0x86,0x4f,0x46,0x86,0x48,0x96,0x4f,0x4f,0x68,
0x86,0x4f,0x6f,0xa4,0x58,0x96,0x45,0x47,0x81,0x70,0x96,0x46,0x45,0x07,0x86,0x45,
0x4f,0x81,0x69,0x96,0x45,0x44,0x1e,0x86,0x46,0x35,0x81,0x52,0x96,0x44,0x43,0x0c,
0x86,0x45,0x52,0x81,0x64,0x96,0x45,0x4b,0x04,0x86,0x44,0x37,0x81,0x6c,0x96,0x46,
0x4c,0x11,0x86,0x45,0x55,0x81,0x5f,0x96,0x44,0x42,0x06,0x86,0x46,0x3b,0x81,0x5e,
0x86,0x44,0x36,0x0c,0x96,0x43,0x43,0x4e,0x86,0x43,0x26,0x81,0x22,0x96,0x42,0x47,
0x81,0x29,0x86,0x42,0x21,0x47,0x96,0x41,0x44,0x81,0x70,0x96,0x40,0x3c,0x02,0x86,
0x41,0x1a,0x81,0x4d,0x86,0x40,0x40,0x21,0x96,0x3f,0x31,0x81,0x5f,0x86,0x3f,0x36,
0x11,0x96,0x3e,0x53,0x87,0x35,0x86,0x3e,0x5d,0x9e,0x0b,0x96,0x4b,0x4c,0x5e,0x86,
0x4b,0x08,0x81,0x12,0x96,0x4b,0x3e,0x63,0x86,0x4b,0x08,0x81,0x0d,0x96,0x4b,0x47,
0x34,0x86,0x4b,0x79,0x81,0x3c,0x96,0x48,0x47,0x44,0x86,0x48,0x2b,0x81,0x2c,0x96,
0x48,0x3e,0x43,0x86,0x48,0x7f,0x81,0x2d,0x96,0x48,0x3b,0x3f,0x86,0x48,0x7f,0x81,
0x31,0x96,0x48,0x35,0x41,0x86,0x48,0x36,0x81,0x2f,0x96,0x48,0x42,0x3e,0x86,0x48,
0x7f,0x81,0x32,0x96,0x4a,0x4b,0x49,0x86,0x4a,0x1e,0x81,0x27,0x96,0x4a,0x3d,0x51,
0x86,0x4a,0x1a,0x81,0x1f,0x96,0x4a,0x42,0x4b,0x86,0x4a,0x20,0x81,0x25,0x96,0x46,
0x4e,0x56,0x86,0x46,0x0a,0x81,0x1a,0x96,0x46,0x4c,0x37,0x86,0x46,0x79,0x81,0x39,
0x96,0x46,0x47,0x36,0x86,0x46,0x79,0x81,0x3a,0x96,0x46,0x48,0x34,0x86,0x46,0x79,
0x81,0x3c,0x96,0x46,0x4a,0x34,0x86,0x46,0x79,0x81,0x3c,0x96,0x46,0x4f,0x48,0x86,
0x46,0x11,0x81,0x28,0x96,0x46,0x41,0x39,0x86,0x46,0x79,0x81,0x37,0x96,0x46,0x49,
0x41,0x86,0x46,0x79,0x81,0x2f,0x96,0x45,0x46,0x81,0x14,0x86,0x45,0x50,0x5c,0x96,
0x45,0x44,0x6a,0x86,0x45,0x0c,0x81,0x06,0x96,0x45,0x46,0x63,0x86,0x45,0x0d,0x81,
0x0d,0x96,0x43,0x48,0x44,0x86,0x43,0x7f,0x81,0x2c,0x96,0x43,0x4e,0x72,0x86,0x43,
0x08,0x7e,0x96,0x3e,0x4d,0x56,0x86,0x3e,0x14,0x81,0x1a,0x96,0x3e,0x3c,0x5e,0x86,
0x3e,0x1d,0x81,0x12,0x96,0x3e,0x3c,0x81,0x04,0x86,0x3e,0x36,0x6c,0x96,0x3e,0x46,
0x75,0x86,0x3e,0x26,0x7b,0x96,0x3e,0x42,0x77,0x86,0x3e,0x2c,0x79,0x96,0x3e,0x41,
0x7a,0x86,0x3e,0x33,0x76,0x96,0x3e,0x39,0x81,0x04,0x86,0x3e,0x48,0x6c,0x96,0x3e,
0x34,0x81,0x04,0x86,0x3e,0x59,0x6c,0x96,0x4b,0x46,0x3e,0x86,0x4b,0x79,0x81,0x32,
0x96,0x4b,0x40,0x63,0x86,0x4b,0x08,0x81,0x0d,0x96,0x4b,0x42,0x7a,0x86,0x4b,0x3e,
0x76,0x96,0x48,0x4d,0x4e,0x86,0x48,0x1b,0x81,0x22,0x96,0x48,0x48,0x51,0x86,0x48,
0x18,0x81,0x1f,0x96,0x48,0x3d,0x44,0x86,0x48,0x31,0x81,0x2c,0x96,0x48,0x44,0x41,
0x86,0x48,0x7f,0x81,0x2f,0x96,0x48,0x40,0x49,0x86,0x48,0x24,0x81,0x27,0x96,0x4a,
0x54,0x49,0x86,0x4a,0x19,0x81,0x27,0x96,0x4a,0x48,0x3c,0x86,0x4a,0x7f,0x81,0x34,
0x96,0x4a,0x41,0x41,0x86,0x4a,0x7f,0x81,0x2f,0x96,0x46,0x4c,0x34,0x86,0x46,0x79,
0x81,0x3c,0x96,0x46,0x4f,0x44,0x86,0x46,0x79,0x81,0x2c,0x96,0x46,0x4b,0x31,0x86,
0x46,0x79,0x81,0x3f,0x96,0x46,0x4a,0x31,0x86,0x46,0x79,0x81,0x3f,0x96,0x46,0x3e,
0x46,0x86,0x46,0x1b,0x81,0x2a,0x96,0x47,0x47,0x53,0x86,0x47,0x13,0x81,0x1d,0x96,
0x47,0x36,0x81,0x02,0x86,0x47,0x3b,0x6e,0x96,0x47,0x43,0x49,0x86,0x47,0x27,0x81,
0x27,0x96,0x48,0x49,0x3f,0x86,0x48,0x7f,0x81,0x31,0x96,0x48,0x43,0x46,0x86,0x48,
0x26,0x81,0x2a,0x96,0x48,0x40,0x6a,0x86,0x48,0x0b,0x81,0x06,0x96,0x4a,0x46,0x39,
0x86,0x4a,0x7f,0x81,0x37,0x96,0x4a,0x40,0x3e,0x86,0x4a,0x7f,0x81,0x32,0x96,0x4f,
0x50,0x7a,0x86,0x4f,0x63,0x76,0x96,0x4f,0x41,0x81,0x07,0x86,0x4f,0x59,0x69,0x96,
0x4f,0x41,0x4b,0x86,0x4f,0x21,0x81,0x25,0x96,0x4f,0x48,0x4e,0x86,0x4f,0x1b,0x81,
0x22,0x96,0x4f,0x62,0x72,0x86,0x4f,0x50,0x82,0x6e,0x96,0x4f,0x4e,0x6b,0x86,0x4f,
0x09,0x82,0x75,0x96,0x4f,0x61,0x81,0x62,0x86,0x4f,0x59,0x81,0x06,0x96,0x4f,0x41,
0x46,0x86,0x4f,0x2e,0x82,0x22,0x96,0x4b,0x56,0x84,0x6f,0x86,0x4b,0x3e,0x84,0x41,
0x96,0x4d,0x55,0x60,0x86,0x4d,0x0b,0x81,0x10,0x96,0x4d,0x47,0x3f,0x86,0x4d,0x7f,
0x81,0x31,0x96,0x4d,0x3f,0x48,0x86,0x4d,0x26,0x81,0x28,0x96,0x4a,0x5c,0x86,0x57,
0x86,0x4a,0x5b,0x82,0x59,0x96,0x4b,0x4a,0x6b,0x86,0x4b,0x05,0x81,0x05,0x96,0x4b,
0x45,0x39,0x86,0x4b,0x79,0x81,0x37,0x96,0x4b,0x3f,0x3e,0x86,0x4b,0x79,0x81,0x32,
0x96,0x4a,0x4f,0x4b,0x86,0x4a,0x1b,0x81,0x25,0x96,0x4a,0x46,0x3a,0x86,0x4a,0x7f,
0x81,0x36,0x96,0x4a,0x33,0x41,0x86,0x4a,0x3a,0x81,0x2f,0x96,0x48,0x51,0x81,0x07,
0x86,0x48,0x3e,0x82,0x59,0x96,0x43,0x64,0x84,0x64,0x86,0x43,0x50,0x8a,0x1c,0x96,
0x4f,0x4e,0x5d,0x86,0x4f,0x0d,0x81,0x13,0x96,0x4f,0x41,0x4b,0x86,0x4f,0x23,0x81,
0x25,0x96,0x4f,0x3d,0x46,0x86,0x4f,0x2c,0x81,0x2a,0x96,0x4b,0x57,0x87,0x0e,0x86,
0x4b,0x25,0x82,0x22,0x96,0x4d,0x48,0x44,0x86,0x4d,0x2b,0x81,0x2c,0x96,0x4d,0x41,
0x3f,0x86,0x4d,0x7f,0x81,0x31,0x96,0x4d,0x33,0x58,0x86,0x4d,0x1c,0x81,0x18,0x96,
0x4a,0x56,0x86,0x38,0x86,0x4a,0x58,0x82,0x78,0x96,0x49,0x58,0x83,0x77,0x86,0x49,
0x42,0x81,0x59,0x96,0x4a,0x56,0x82,0x22,0x86,0x4a,0x47,0x83,0x2e,0x96,0x4c,0x55,
0x75,0x86,0x4c,0x64,0x82,0x6b,0x96,0x51,0x51,0x83,0x77,0x86,0x51,0x57,0x83,0x49,
0x96,0x51,0x55,0x6a,0xff,0x2f,0x00,0x00,0x86,0x51,0x68,
];
